<svg width="61" height="47" viewBox="0 0 61 47" fill="none" xmlns="http://www.w3.org/2000/svg">
<g clip-path="url(#clip0_4_3448)">
<path d="M19.2992 44.96C19.8584 40.3049 16.6253 36.8293 13.1803 34.1488C11.1737 32.5852 9.21221 31.2808 7.90455 29.0426C7.2372 27.8945 6.5969 26.5989 6.22264 25.3257C5.49215 22.8463 6.75472 18.9507 9.87957 21.8098C11.6787 23.4583 12.0936 25.5848 13.4689 27.4164C14.2444 28.4529 15.4349 29.0068 16.6749 28.3457C20.404 26.3621 17.5181 19.4823 16.6839 16.7482C15.6738 13.4379 15.1418 10.2526 16.8417 7.06735C17.4009 6.02197 18.0276 4.94532 18.7446 4.0027C19.209 3.39513 19.7997 2.73842 20.4626 2.31848C21.8334 1.44287 22.6585 1.44287 24.1736 1.90748C25.7879 2.40336 25.8014 2.48824 26.1306 4.02503C26.2839 4.73535 26.347 5.51715 26.3831 6.24981C26.4598 7.8 26.3335 9.3636 26.0134 10.887C25.4136 13.7774 23.6866 16.3328 23.3079 19.2679C23.0283 21.4256 23.2222 28.2831 26.8115 27.6398C31.0185 26.8848 30.7164 20.1926 34.9099 19.2991C38.4 18.5531 40.1045 22.3549 38.6255 24.9638C37.8229 26.3845 36.4882 27.4835 35.203 28.4529C32.9124 30.1818 30.1122 31.0842 27.8621 32.831C23.7903 36.0028 25.1431 40.9885 26.816 45.0762C27.1407 45.8669 28.4483 45.5184 28.1191 44.7188C26.9919 41.9624 25.576 38.5895 27.1001 35.6946C28.5114 33.0141 32.236 32.076 34.6394 30.4945C37.886 28.3591 42.544 24.3384 39.7934 20.1077C37.4937 16.5651 33.0386 17.7489 30.9374 20.7153C30.3016 21.6133 29.8101 22.6006 29.2464 23.5432C28.9894 23.9721 28.7324 24.4054 28.4303 24.8075C28.2138 25.0666 27.9974 25.3212 27.781 25.5803C26.072 25.9556 25.1882 25.5044 25.1296 24.2178C23.4161 20.6081 25.4903 16.9091 26.6537 13.5808C27.5194 11.1059 27.8892 8.47012 27.7043 5.85668C27.578 4.04737 27.3887 1.59923 25.6707 0.51811C24.1601 -0.43345 21.8379 0.111575 20.3544 0.853167C18.1449 1.96109 16.7921 4.31095 15.6738 6.4017C12.8015 11.7715 15.7009 16.5025 16.7696 21.9126C16.9094 22.6318 17.2656 24.2088 17.0266 25.0085C16.2961 25.6697 15.5656 26.3264 14.8306 26.9876C14.4113 26.4559 14.0956 25.8752 13.8747 25.2363C13.4508 24.3027 13.0044 23.4315 12.3867 22.6006C11.4127 21.2871 9.57295 19.1294 7.69262 19.2366C5.86641 19.3438 4.79323 21.2559 4.59934 22.8507C4.31075 25.2095 5.58684 27.7247 6.74119 29.7261C9.9427 35.2702 18.8663 37.3118 17.9465 44.9689C17.8473 45.8133 19.2 45.8088 19.2992 44.96Z" fill="#46A358"/>
<path d="M30.987 22.6855C31.961 17.7936 30.1212 13.3218 29.7379 8.49248C29.508 5.60653 30.748 0.991685 34.689 2.30511C37.6245 3.28347 38.7382 6.75019 38.5398 9.52446C38.3955 11.5527 37.4125 17.5033 41.3535 16.9493C44.7354 16.4758 46.4805 10.8915 48.1218 8.52375C49.5287 6.49555 52.6355 3.53365 55.368 4.36012C59.6968 5.66907 56.9237 10.8155 54.9306 12.8393C51.5713 16.2479 47.991 19.2634 45.0285 23.0607C43.3105 25.2632 41.8225 28.8818 45.6327 29.8691C47.0982 30.2488 48.5096 29.744 49.8308 29.1454C50.8949 28.6629 51.9095 28.0866 53.0413 27.7694C55.1065 27.1886 57.5009 27.6443 56.1346 30.1863C52.9376 36.1413 45.6192 31.7499 40.8981 34.2472C36.894 36.3692 35.9606 41.06 36.3393 45.1745C36.416 46.0277 37.7733 46.0367 37.6921 45.1745C37.4261 42.3064 37.656 39.206 39.6581 36.9321C42.2464 33.9925 45.7004 35.0647 49.1273 34.9977C52.6265 34.9307 57.1311 33.2509 57.8571 29.3777C58.6507 25.1336 53.7718 25.9556 51.2692 26.9787C50.1644 27.4299 49.1319 28.1313 47.9775 28.4618C47.0621 28.7254 45.6147 28.8684 44.8932 28.0151C44.1943 27.1842 44.758 25.7859 45.1908 25.08C46.7736 22.4889 49.1995 20.1256 51.3549 17.9947C54.3264 15.0551 59.3947 11.9369 58.9573 7.14332C58.6236 3.47557 55.2057 2.13088 52.0538 3.50684C50.1599 4.33331 48.5953 5.64674 47.3597 7.28628C45.7455 9.42617 44.8842 12.3657 42.9588 14.251C42.2644 14.93 41.5835 16.373 40.0324 14.9568C39.3425 14.3269 39.5499 12.6472 39.622 11.785C39.7167 10.6547 39.9602 9.55126 39.9241 8.41207C39.8655 6.48661 39.2207 4.53435 37.9627 3.04223C35.3022 -0.102832 30.7345 0.0356578 28.9669 3.98039C27.9117 6.33919 28.3762 9.03751 28.8181 11.4857C29.4674 15.0998 30.4188 18.6469 29.6838 22.3281C29.517 23.1724 30.8201 23.5343 30.987 22.6855Z" fill="#46A358"/>
<path d="M30.6849 31.1602C30.0491 35.7661 29.0075 40.2782 27.5555 44.7009C27.285 45.5229 28.5926 45.8758 28.8587 45.0583C30.3106 40.6356 31.3522 36.1235 31.988 31.5176C32.1053 30.6687 30.8021 30.3069 30.6849 31.1602Z" fill="#46A358"/>
<path d="M14.506 44.1917C14.3301 40.6445 11.8456 38.25 8.98676 36.4273C7.13349 35.2434 5.10437 34.2561 3.51263 32.7149C2.82724 32.0537 1.55115 30.7715 1.48351 29.744C1.25354 26.3175 5.47863 28.9846 6.41653 29.7753C7.07487 30.3337 8.03533 29.3866 7.37248 28.8282C5.89798 27.5818 3.2511 25.9601 1.22649 26.8983C-0.405833 27.6533 -0.135283 29.5251 0.491491 30.8743C3.12935 36.606 12.806 37.2627 13.1532 44.1917C13.1938 45.0494 14.5511 45.0539 14.506 44.1917Z" fill="#46A358"/>
<path d="M44.8391 45.5185C46.5256 42.9989 48.7486 40.9394 51.4721 39.5545C53.9522 38.2947 57.0274 38.0758 59.2234 36.2933C61.744 34.2472 61.8748 29.2303 57.7038 29.3598C56.8335 29.3866 56.8335 30.7269 57.7038 30.7C59.3496 30.9234 60.017 31.8258 59.7149 33.4028C59.3767 34.3097 58.804 35.0245 57.9969 35.5427C57.0094 36.2352 55.8099 36.5524 54.6736 36.9098C53.2262 37.3654 51.8148 37.8435 50.4756 38.5582C47.6889 40.0504 45.4118 42.2394 43.6668 44.8439C43.1843 45.5632 44.3567 46.2333 44.8391 45.5185Z" fill="#46A358"/>
<path d="M48.5141 33.7289C42.7829 34.8011 40.6681 40.4524 39.3109 45.3978C39.0809 46.2332 40.3886 46.5861 40.614 45.7552C41.8495 41.2565 43.6307 36.0028 48.8748 35.0244C49.7271 34.8591 49.3663 33.5681 48.5141 33.7289Z" fill="#46A358"/>
<path d="M18.2937 13.3307C17.6218 10.6547 18.4605 7.72412 20.6339 5.92822C21.0713 5.54849 21.5673 5.2581 22.1129 5.05707C23.6145 5.37426 24.3134 6.16946 24.2097 7.44267C24.2368 8.18426 24.0925 8.91692 23.9166 9.63171C23.5604 11.0747 22.9336 12.4462 22.4692 13.8579C21.2742 17.4944 19.5562 23.4405 22.7848 26.5364C23.0959 26.8357 23.5784 26.3622 23.2628 26.0629C20.431 23.3512 21.883 18.1377 22.8524 14.8899C23.6911 12.0754 25.9683 8.33615 24.4307 5.37872C23.2312 3.07353 20.4806 4.94538 19.3127 6.29454C17.5857 8.29148 17.0041 10.9764 17.6398 13.5094C17.7481 13.9294 18.3974 13.7507 18.2937 13.3307Z" fill="#46A358"/>
<path d="M32.5877 24.182C32.9755 23.3288 33.7601 22.1226 34.8107 21.9796C36.4115 21.7607 37.2367 23.7532 36.3799 25.0711C35.5728 26.313 34.0352 27.1797 32.7095 27.7113C30.5045 28.5914 29.0255 29.8065 27.4247 31.5444C27.1316 31.8615 27.6096 32.3396 27.9027 32.0179C28.8722 30.9591 29.8642 29.8601 31.1268 29.1275C32.1323 28.5422 33.3002 28.3144 34.3102 27.7426C35.5412 27.0412 37.5343 25.5267 37.6786 23.9989C37.7958 22.7659 36.4837 21.3363 35.2572 21.2604C33.7782 21.1665 32.5426 22.6676 32.006 23.847C31.8257 24.2312 32.4119 24.5752 32.5877 24.182Z" fill="#46A358"/>
<path d="M7.30033 24.9595C7.44913 23.7846 7.89554 23.3512 8.63504 23.6684C8.89657 23.6729 9.11301 23.7667 9.29338 23.9498C9.64961 24.1822 9.88408 24.5261 10.096 24.888C10.4748 25.5358 10.6506 26.2908 10.9302 26.9788C11.2864 27.8633 11.7554 28.5826 12.5625 29.1097C12.9278 29.351 13.266 28.7702 12.9052 28.529C10.9212 27.2245 11.4758 23.8382 8.99578 23.0162C7.50775 22.5247 6.01071 23.8024 6.71865 25.2945C6.90352 25.6877 7.48521 25.3482 7.30033 24.9595Z" fill="#46A358"/>
<path d="M31.5326 7.6214C31.1809 5.69147 33.2326 4.15468 34.8017 5.56192C35.6675 6.33925 36.0012 7.76882 36.0057 8.88568C36.0147 10.4001 35.3158 11.7538 35.6134 13.2727C35.6946 13.6971 36.3484 13.5184 36.2672 13.094C35.893 11.1864 36.9662 9.35922 36.4837 7.38016C36.1951 6.19629 35.6089 4.8784 34.3734 4.43166C32.1458 3.63199 30.509 5.76742 30.8788 7.79563C30.9599 8.22003 31.6093 8.04133 31.5326 7.6214Z" fill="#46A358"/>
<path d="M31.1944 12.0396C32.2947 14.3314 32.8358 16.3417 32.7546 18.8837C32.7411 19.317 33.4174 19.3125 33.431 18.8837C33.5166 16.2121 32.9304 14.0991 31.7806 11.7045C31.5912 11.3159 31.0095 11.6554 31.1944 12.0396Z" fill="#46A358"/>
<path d="M48.7351 10.1231C49.3889 8.64442 50.6244 7.71073 52.0538 7.00935C52.4641 6.79491 52.888 6.62068 53.3299 6.48219C55.2373 7.1255 55.7198 8.01452 54.7774 9.15818C54.3264 9.85956 53.6726 10.4895 53.109 11.106C50.9626 13.4514 48.6449 15.6225 46.1964 17.6507C45.8627 17.9277 46.3407 18.4013 46.6744 18.1243C48.8884 16.2926 50.9942 14.3448 52.9602 12.2541C54.1416 10.9988 56.4097 9.13584 55.9137 7.15231C54.9262 3.22098 48.9786 7.9073 48.1489 9.78808C47.9775 10.1767 48.5637 10.5163 48.7351 10.1231Z" fill="#46A358"/>
<path d="M44.9158 20.0854C42.7559 21.6579 41.4437 23.9497 41.1957 26.59C41.1551 27.0188 41.8315 27.0144 41.8721 26.59C42.0976 24.2044 43.306 22.0823 45.2585 20.6617C45.6057 20.4115 45.2675 19.8263 44.9158 20.0854Z" fill="#46A358"/>
<path d="M49.195 31.263C49.6369 30.9994 50.0788 30.7224 50.5432 30.4946C50.8949 30.3025 51.2647 30.155 51.6525 30.0523C52.3785 29.753 52.622 30.3114 52.3785 31.7276C51.9005 32.6613 49.3122 32.697 48.5096 32.6479C46.503 32.5317 44.6137 31.9867 42.6341 32.5898C42.2193 32.7149 42.3952 33.3626 42.8145 33.2376C45.1908 32.5094 47.504 33.5681 49.9029 33.3046C51.2061 33.1571 53.0503 32.563 53.6996 31.3121C54.0604 30.6152 53.9747 29.6949 53.1856 29.3152C51.8915 28.6942 49.8714 30.0702 48.8523 30.6822C48.4825 30.91 48.8207 31.4908 49.195 31.263Z" fill="#46A358"/>
<path d="M39.1396 33.7557C35.6224 36.5836 34.3418 40.8723 33.9856 45.1968C33.9495 45.6256 34.6259 45.6256 34.662 45.1968C35.0047 41.0376 36.2357 36.9455 39.6175 34.2293C39.9557 33.9568 39.4732 33.4877 39.1396 33.7557Z" fill="#46A358"/>
<path d="M24.0023 34.895C22.9562 36.6909 22.9877 38.6476 23.2177 40.6579C23.4116 42.3466 23.6325 44.004 24.8094 45.3174C25.098 45.6391 25.576 45.1656 25.2874 44.8439C24.1331 43.5573 23.9888 41.7703 23.8354 40.1263C23.6731 38.4153 23.6957 36.7579 24.5885 35.23C24.8049 34.8592 24.2232 34.5242 24.0023 34.895Z" fill="#46A358"/>
<path d="M5.34337 30.4812C3.38639 30.508 4.16196 32.5496 5.20809 33.2822C6.51575 34.1981 8.00377 34.8101 9.3926 35.583C11.0294 36.4943 11.6878 38.0311 12.9458 39.3133C13.2479 39.6215 13.7259 39.148 13.4238 38.8397C12.1748 37.5665 11.5705 36.0431 9.96075 35.1317C9.1491 34.6716 8.29687 34.2829 7.48071 33.8407C7.05685 33.6128 6.63299 33.385 6.22716 33.1303C6.06483 33.0321 5.89799 32.9293 5.73566 32.831C4.92852 32.5272 4.80227 31.9688 5.34787 31.1557C5.77625 31.1468 5.77625 30.4767 5.34337 30.4812Z" fill="#46A358"/>
<path d="M56.2383 33.5682C56.2609 34.4617 55.846 34.9486 54.9848 35.0335C54.5699 35.1988 54.1596 35.3596 53.7448 35.5249C53.127 35.7706 52.5047 36.0163 51.887 36.262C50.444 36.8339 48.9966 37.4102 47.5537 37.982C47.1524 38.1383 47.3282 38.7906 47.734 38.6298C49.3844 37.973 51.0347 37.3208 52.6851 36.6641C53.9071 36.1771 55.4673 35.8287 56.554 35.0692C57.4964 34.4081 57.5234 33.0366 56.2338 32.8981C55.8055 32.8489 55.81 33.5235 56.2383 33.5682Z" fill="#46A358"/>
<path d="M46.0025 38.9111C44.1898 40.6087 42.7604 42.6012 41.7504 44.8617C41.5745 45.2504 42.1562 45.5944 42.3366 45.2013C43.3241 42.9943 44.7084 41.0466 46.485 39.3891C46.7961 39.0898 46.3182 38.6163 46.0025 38.9111Z" fill="#46A358"/>
<path d="M14.5511 41.8418C15.0696 42.6013 15.4033 43.4188 15.5611 44.3212C15.6333 44.7456 16.2871 44.5669 16.215 44.1425C16.0481 43.191 15.6829 42.3019 15.1373 41.5023C14.8938 41.1493 14.3076 41.4844 14.5511 41.8418Z" fill="#46A358"/>
</g>
<defs>
<clipPath id="clip0_4_3448">
<rect width="61" height="46.2289" fill="white"/>
</clipPath>
</defs>
</svg>
