<svg width="55" height="49" viewBox="0 0 55 49" fill="none" xmlns="http://www.w3.org/2000/svg">
<g clip-path="url(#clip0_4_3354)">
<path d="M9.12932 1.3637C21.7023 3.03555 34.3918 3.29833 47.0231 2.14752C47.8795 2.0705 47.8885 0.711276 47.0231 0.788299C34.3918 1.93911 21.7023 1.67632 9.12932 0.00448025C8.27737 -0.108788 8.28185 1.25497 9.12932 1.3637Z" fill="#727272"/>
<path d="M12.0304 47.2646C17.465 47.9624 22.9354 48.3022 28.4147 48.2251C33.235 48.1572 38.9251 48.3701 43.4449 46.4536C44.2296 46.1183 43.8843 44.8044 43.0862 45.1442C38.4498 47.1106 32.5086 46.8433 27.5493 46.875C22.3569 46.9112 17.178 46.5669 12.0259 45.9054C11.174 45.7967 11.1785 47.1559 12.0304 47.2646Z" fill="#727272"/>
<path d="M8.6047 0.317125C2.33167 6.19803 -0.591861 14.965 0.0986657 23.5145C0.452897 27.932 1.69046 32.2271 3.5513 36.2323C5.24623 39.8841 7.74378 45.1171 11.4924 47.0155C12.2636 47.4051 12.9452 46.2362 12.1694 45.842C8.68093 44.075 6.30892 38.987 4.71264 35.5482C2.85629 31.5385 1.64114 27.1844 1.39004 22.7579C0.941646 14.7793 3.71272 6.75531 9.55978 1.27764C10.1965 0.684116 9.24142 -0.276402 8.6047 0.317125Z" fill="#727272"/>
<path d="M46.5478 1.96172C53.1661 6.15266 53.7893 15.1915 53.6279 22.3093C53.4486 30.2471 52.4755 42.8245 43.0862 45.1442C42.2477 45.3526 42.6019 46.662 43.4449 46.4536C53.2468 44.0342 54.6547 31.552 54.9507 23.152C55.2242 15.2912 54.5337 5.41415 47.2248 0.788259C46.4895 0.326123 45.8169 1.49959 46.5478 1.96172Z" fill="#727272"/>
<path d="M13.5774 1.3727C8.64055 6.74163 6.46135 15.708 7.29537 22.8983C7.77963 27.0801 9.08894 31.2303 10.062 35.3125C11.0395 39.4038 12.0483 43.4633 14.2634 47.0743C14.7208 47.8173 15.8821 47.1332 15.4247 46.3902C13.3442 43.0012 12.3757 39.2135 11.4565 35.3759C10.5686 31.6788 9.53285 27.9772 8.84681 24.2394C7.54647 17.1216 9.58218 7.71574 14.528 2.33322C15.1154 1.68986 14.1648 0.729339 13.5774 1.3727Z" fill="#727272"/>
<path d="M20.2405 1.93912C16.5637 8.48151 14.6311 15.9119 14.7298 23.442C14.7791 27.0576 15.2903 30.6776 16.2678 34.1572C17.4829 38.475 19.3303 42.5708 20.1374 47.0064C20.2943 47.8672 21.5902 47.5003 21.4332 46.6439C20.7293 42.7611 19.2361 39.1456 18.0479 35.4032C16.8955 31.7695 16.205 28.0226 16.0884 24.2032C15.8552 16.6504 17.7116 9.18831 21.4019 2.62326C21.8323 1.8621 20.671 1.17796 20.2405 1.93912Z" fill="#727272"/>
<path d="M24.2043 3.23948C25.4822 10.7877 23.9308 18.3495 24.0608 25.9294C24.1191 29.3909 24.8859 32.6123 25.3343 36.0194C25.8006 39.5579 25.0025 43.1961 24.5675 46.7074C24.4599 47.5728 25.8051 47.5637 25.9127 46.7074C26.3521 43.1644 27.1458 39.499 26.6795 35.9288C26.2042 32.277 25.4015 28.8155 25.397 25.1003C25.3881 17.6654 26.7512 10.2848 25.5002 2.88155C25.3522 2.02071 24.0564 2.38317 24.2043 3.23948Z" fill="#727272"/>
<path d="M29.2488 2.6096C31.6118 9.42837 31.8988 16.6232 32.1364 23.7772C32.3965 31.5475 32.0109 39.1953 30.576 46.8432C30.4146 47.6996 31.7104 48.0665 31.8719 47.2057C33.3292 39.44 33.7462 31.6653 33.4816 23.7772C33.2395 16.5054 32.9435 9.17465 30.5446 2.24714C30.2621 1.43161 28.9618 1.78501 29.2488 2.6096Z" fill="#727272"/>
<path d="M34.9075 2.64142C35.4052 4.17734 36.4813 5.20129 37.3064 6.55145C38.248 8.0919 38.7637 9.83624 39.0417 11.6123C39.647 15.4906 39.36 19.5501 39.3511 23.4602C39.3421 27.7145 39.6649 32.2136 38.5753 36.3683C37.6158 40.0155 35.4142 43.1598 34.6788 46.8841C34.5084 47.7404 35.8043 48.1029 35.9747 47.2466C36.7638 43.2595 39.2031 39.8841 40.064 35.9152C40.9473 31.8556 40.6873 27.5877 40.6962 23.4602C40.7052 19.6453 40.9339 15.7443 40.4362 11.9521C40.2165 10.2757 39.8398 8.61747 39.1224 7.08608C38.3242 5.37799 36.7862 4.07766 36.2078 2.28349C35.9343 1.45436 34.634 1.80776 34.9075 2.64142Z" fill="#727272"/>
<path d="M41.4496 2.42836C44.122 4.96558 45.4089 9.01606 46.3729 12.5138C47.3773 16.1565 47.041 20.0439 46.8168 23.7727C46.3639 31.339 45.0995 38.8963 41.5078 45.6381C41.0953 46.4083 42.2567 47.0969 42.6692 46.3222C46.4985 39.1319 47.7764 31.0491 48.2024 22.9843C48.4176 18.9248 48.5925 14.9604 47.3325 11.0504C46.2384 7.65684 45.0322 3.96882 42.4001 1.46332C41.7724 0.86979 40.8173 1.83031 41.4496 2.42836Z" fill="#727272"/>
<path d="M13.4698 5.82653C13.3308 6.18446 13.1783 6.53786 13.0124 6.88672C12.8017 7.3262 13.0483 7.92879 13.5953 7.91067C13.9854 7.89708 14.2948 7.72038 14.5728 7.45307C14.6625 7.36698 14.7522 7.27637 14.8374 7.19028C14.9495 7.07701 14.8015 7.25824 14.8867 7.15404C14.8688 7.18122 14.7746 7.17216 14.8598 7.18122C14.6446 6.89578 14.4293 6.60582 14.2096 6.32038C14.1513 6.62394 14.0886 6.9275 14.0303 7.23559C13.9585 7.59352 14.1334 7.96957 14.5011 8.07378C14.8329 8.16439 15.2589 7.96051 15.3306 7.59805C15.3889 7.29449 15.4517 6.99093 15.51 6.68284C15.5996 6.2207 15.3172 5.86731 14.8598 5.822C14.4876 5.78575 14.1513 5.9851 13.8868 6.22976C13.7926 6.31585 13.7119 6.40646 13.6177 6.49255C13.5863 6.51973 13.5594 6.54692 13.5281 6.5741C13.5415 6.56051 13.555 6.55145 13.5684 6.53786C13.5012 6.5741 13.5012 6.57863 13.5774 6.54692C13.5012 6.56504 13.5056 6.56957 13.5908 6.54692C13.7836 6.88672 13.9765 7.22653 14.1737 7.57086C14.389 7.11779 14.5863 6.65565 14.7656 6.18899C14.8957 5.84465 14.6221 5.44142 14.2948 5.3508C13.9182 5.24659 13.6043 5.48219 13.4698 5.82653Z" fill="#727272"/>
<path d="M10.1382 13.9592C10.0754 14.3398 10.0127 14.7204 9.94988 15.0964C9.90056 15.4 9.98127 15.699 10.2593 15.8621C10.5059 16.0071 10.8781 15.9799 11.0754 15.7579C11.2054 15.6084 11.3354 15.4589 11.4655 15.3094C11.5506 15.2097 11.6717 15.0239 11.7748 14.9696C11.6627 15.0013 11.5506 15.033 11.4341 15.0602C11.4565 15.0556 11.4834 15.0556 11.5058 15.0511C11.3937 15.0194 11.2816 14.9877 11.165 14.9605C11.183 14.9741 11.2009 14.9877 11.2188 15.0013C11.1067 14.8065 10.9946 14.6116 10.887 14.4123C10.9229 14.8019 10.8153 15.2369 10.7704 15.631C10.7077 16.1974 11.3758 16.4058 11.7838 16.22C12.3129 15.9708 12.6672 15.5132 12.8555 14.965C12.4788 15.0647 12.1067 15.1644 11.73 15.2641C11.7166 15.178 11.7031 15.0919 11.6897 15.0058C11.4699 15.853 12.7703 16.2155 12.9855 15.3683C13.0842 14.9831 12.9945 14.5618 12.6806 14.3035C12.277 13.9728 11.7345 14.0906 11.5551 14.6026C11.4744 14.8291 11.3085 14.9469 11.1023 15.0466C11.4386 15.2414 11.7748 15.4362 12.1156 15.6356C12.1829 15.0285 12.5057 13.9501 11.6807 13.7191C10.9857 13.5243 10.4969 14.3579 10.1203 14.7974C10.4969 15.0194 10.8691 15.2369 11.2457 15.4589C11.3085 15.0783 11.3713 14.6977 11.4341 14.3217C11.4924 13.9592 11.3399 13.5877 10.9633 13.4835C10.6449 13.3974 10.1965 13.5967 10.1382 13.9592Z" fill="#727272"/>
<path d="M9.55977 22.1462C9.60461 22.6808 9.65393 23.2155 9.69877 23.7456C9.76603 24.5022 10.7749 24.6789 11.0215 23.9268C11.1561 23.51 11.3444 23.1339 11.582 22.7624C11.174 22.708 10.7615 22.6537 10.3534 22.5993C10.5104 22.9935 10.618 23.3967 10.6763 23.8226C10.7435 24.3028 11.322 24.3844 11.6627 24.2303C11.8331 24.1533 11.9721 24.0038 12.0618 23.8407C12.1022 23.7682 12.1336 23.6821 12.1605 23.6051C12.1739 23.5643 12.1829 23.5236 12.1963 23.4828C12.2187 23.4148 12.2098 23.4193 12.1784 23.4964C12.0797 23.5553 11.9811 23.6142 11.8824 23.6731C11.9049 23.664 11.9318 23.6595 11.9542 23.6504C11.8331 23.6504 11.7165 23.6504 11.5955 23.6504C11.5865 23.6459 11.5775 23.6414 11.5731 23.6323C11.4923 23.5507 11.4116 23.4692 11.3309 23.3876C11.3444 23.4058 11.3533 23.4239 11.3668 23.442C11.3444 23.2653 11.322 23.0931 11.2995 22.9164C11.2951 22.9391 11.2951 22.9617 11.2906 22.9799C11.2412 23.3423 11.3758 23.7093 11.7614 23.8181C12.0753 23.9041 12.5416 23.7093 12.5909 23.3423C12.6313 23.0478 12.6088 22.7805 12.3936 22.5585C12.2143 22.3773 11.9407 22.2912 11.6896 22.3184C11.4296 22.3501 11.2009 22.5041 11.0619 22.7261C11.0036 22.8213 10.9229 22.9527 10.9184 23.0614C10.9139 23.22 10.8467 23.1067 10.9901 23.0433C11.3175 23.1792 11.6493 23.3151 11.9766 23.4511C11.9183 23.0297 11.8107 22.6265 11.6538 22.2278C11.4385 21.6931 10.757 21.5391 10.4252 22.0647C10.1292 22.5313 9.90055 23.0297 9.73016 23.5507C10.1696 23.6096 10.609 23.6731 11.0529 23.732C11.0081 23.1973 10.9588 22.6627 10.9139 22.1326C10.8825 21.7656 10.6269 21.453 10.2413 21.453C9.89607 21.4666 9.52838 21.7792 9.55977 22.1462Z" fill="#727272"/>
<path d="M11.1785 31.7333C11.2233 32.5171 11.6134 33.2012 12.2905 33.5999C12.7389 33.8582 13.2949 33.5275 13.3039 33.0109C13.3084 32.6122 13.398 32.2453 13.5505 31.8783C13.1738 31.9779 12.8017 32.0776 12.425 32.1773C12.6089 32.4038 12.8061 32.6032 13.0259 32.7889C13.3846 33.0925 14.0392 33.0336 14.1513 32.4899C14.1782 32.3676 14.2096 32.2634 14.25 32.1501C13.8733 32.2498 13.5012 32.3495 13.1245 32.4491C13.1649 32.4265 13.1873 32.4537 13.1828 32.5262C13.3263 32.866 13.8195 32.9385 14.102 32.7708C14.4473 32.5669 14.4876 32.1818 14.3441 31.842C14.2859 31.7061 14.1917 31.5838 14.0751 31.4886C13.6581 31.1579 13.1469 31.2802 12.9496 31.7876C12.9048 31.9009 12.8734 32.0097 12.851 32.1275C13.2276 32.0278 13.5998 31.9281 13.9765 31.8284C13.7567 31.6427 13.5595 31.4388 13.3756 31.2168C13.0169 30.7728 12.425 31.1035 12.2501 31.5158C12.0528 31.9915 11.9632 32.4944 11.9542 33.0109C12.2905 32.8161 12.6268 32.6213 12.9676 32.422C12.7075 32.2724 12.5371 32.0368 12.5192 31.7287C12.4743 30.8679 11.1292 30.8588 11.1785 31.7333Z" fill="#727272"/>
<path d="M13.9496 41.053C14.1065 41.4607 14.2948 41.8368 14.5504 42.1947C14.9495 42.7475 15.7431 42.5436 15.8059 41.8504C15.8104 41.8096 15.8821 41.3067 15.8552 41.284C15.6624 41.4064 15.4741 41.5287 15.2813 41.651C15.3261 41.7144 15.3665 41.7733 15.4158 41.8322C15.5862 42.0497 15.7969 42.2355 16.0705 42.3125C16.2812 42.3669 16.5278 42.3397 16.7117 42.2219C16.8327 42.1403 16.9179 42.0452 16.9807 41.9138C17.0031 41.8594 17.0255 41.8051 17.048 41.7507C17.1511 41.4245 16.9538 41.3701 16.4606 41.5876C16.7296 42.4122 18.0299 42.0588 17.7564 41.2251C17.5681 40.6543 17.0211 40.2827 16.4247 40.5093C16.1826 40.6044 15.9718 40.7856 15.8552 41.0212C15.8194 41.0937 15.6893 41.4064 15.7342 41.497C15.9942 41.3475 16.2498 41.1934 16.5099 41.0439C16.474 40.9986 16.4381 40.9578 16.4068 40.9125C16.1915 40.473 15.5683 40.2238 15.1199 40.3869C14.4876 40.6135 14.5145 41.2931 14.4652 41.8549C14.8822 41.7416 15.2992 41.6284 15.7207 41.5106C15.5369 41.2568 15.371 40.9895 15.2544 40.695C14.9315 39.8886 13.6312 40.2374 13.9496 41.053Z" fill="#727272"/>
<path d="M21.1373 6.01223C20.653 6.37922 20.2495 6.81417 19.9849 7.37145C19.6397 8.09637 20.4423 8.66724 21.0431 8.19605C21.1866 8.08278 21.3301 7.96951 21.4736 7.85624C21.5364 7.8064 21.5991 7.75656 21.6664 7.70673C21.6978 7.67954 21.7292 7.65689 21.7606 7.6297C21.8727 7.54815 21.8144 7.56174 21.5857 7.66595C21.4736 7.63423 21.3615 7.60252 21.2449 7.57533C21.2584 7.5844 21.2718 7.59346 21.2853 7.60252C21.2046 7.52097 21.1238 7.43941 21.0431 7.35786C21.0297 7.29896 21.0117 7.24459 20.9983 7.18569C21.0028 7.12226 21.0028 7.1132 20.9893 7.16757C20.9579 7.19022 20.949 7.34427 20.949 7.36692C20.9176 7.57533 20.9355 7.77922 21.0431 7.96951C21.1418 8.14168 21.3167 8.29572 21.5095 8.34556C21.5902 8.36821 21.6933 8.37727 21.7785 8.37727C21.8592 8.37727 21.931 8.36368 22.0027 8.3365C22.0969 8.30931 22.0655 8.30025 21.9041 8.30931C21.8054 8.25041 21.7068 8.19152 21.6081 8.13262C21.6216 8.14621 21.635 8.1598 21.6485 8.17339C21.5902 8.07372 21.5319 7.97404 21.4736 7.87436C21.4781 7.88795 21.4826 7.90608 21.487 7.91967C21.5095 7.74297 21.5319 7.5708 21.5543 7.3941C21.5453 7.4077 21.5409 7.42129 21.5319 7.43488C21.1238 8.20511 22.2852 8.89378 22.6932 8.11902C22.8681 7.79281 22.8277 7.42582 22.5542 7.16757C22.4107 7.03165 22.2179 6.95009 22.0206 6.94556C21.9085 6.94103 21.7785 7.01352 21.6799 7.00446C21.792 7.03618 21.9041 7.06789 22.0206 7.09508C22.0027 7.08148 21.9848 7.06789 21.9713 7.05883C22.052 7.14038 22.1327 7.22194 22.2134 7.30349C22.2045 7.28537 22.1955 7.26724 22.1865 7.24912C22.2179 7.36239 22.2493 7.47566 22.2762 7.59346C22.2672 7.50737 22.2807 7.55268 22.3121 7.42582C22.348 7.26724 22.3524 7.09508 22.3166 6.93197C22.2403 6.60576 21.9982 6.37016 21.6754 6.31126C21.3391 6.24783 21.1104 6.42453 20.8548 6.62388C20.5992 6.82323 20.3436 7.02711 20.0881 7.22647C20.4423 7.50284 20.792 7.77469 21.1463 8.05106C21.3077 7.71579 21.5139 7.4077 21.8144 7.18116C22.1058 6.96368 22.2538 6.59216 22.0565 6.25236C21.8906 5.96692 21.4332 5.79475 21.1373 6.01223Z" fill="#727272"/>
<path d="M18.5052 13.6601C18.3931 14.2038 18.2855 14.7475 18.1734 15.2957C18.0344 15.9889 18.7788 16.3876 19.2989 15.9572C19.4513 15.8303 19.5859 15.6718 19.6845 15.4996C19.7518 15.3818 19.8325 15.1417 19.8684 15.0828C19.7876 15.1643 19.7069 15.2459 19.6262 15.3274C19.6486 15.3138 19.6666 15.3003 19.689 15.2821C19.5769 15.3138 19.4648 15.3456 19.3482 15.3727C19.3751 15.3682 19.402 15.3682 19.4289 15.3637C19.3168 15.332 19.2047 15.3003 19.0881 15.2731C18.9805 15.2232 18.976 15.0465 19.0074 15.2776C19.0164 15.3365 19.0299 15.3863 19.0478 15.4407C19.1106 15.6446 19.2227 15.8258 19.3931 15.9527C19.55 16.0705 19.7338 16.1339 19.9311 16.1294C20.0522 16.1248 20.1643 16.0931 20.2719 16.0388C20.3302 16.0161 20.3795 15.9844 20.4244 15.9436C20.5409 15.8621 20.5096 15.8666 20.3347 15.9481C20.2226 15.9164 20.1105 15.8847 19.9939 15.8575C20.0118 15.8666 20.0163 15.8757 20.0298 15.9119C20.3167 16.732 21.6171 16.3786 21.3256 15.5494C21.2001 15.1915 21.0162 14.8608 20.671 14.6841C20.4916 14.5889 20.2674 14.5617 20.0701 14.6071C19.8728 14.6524 19.7563 14.7837 19.5859 14.8653C19.698 14.8336 19.8101 14.8019 19.9266 14.7747C19.9042 14.7747 19.8773 14.7747 19.8549 14.7747C19.967 14.8064 20.0791 14.8381 20.1957 14.8653C20.3167 15.0782 20.3526 15.11 20.3033 14.9604C20.2943 14.9015 20.2854 14.8426 20.2764 14.7837C20.245 14.6659 20.1957 14.5436 20.1329 14.4439C19.967 14.1812 19.6935 14.009 19.3841 14.0135C19.0792 14.0181 18.8012 14.1948 18.6577 14.4621C18.5366 14.6886 18.5456 14.8245 18.3393 14.9967C18.716 15.2187 19.0881 15.4362 19.4648 15.6582C19.5769 15.1145 19.6845 14.5708 19.7966 14.0271C19.976 13.1663 18.6801 12.8038 18.5052 13.6601Z" fill="#727272"/>
<path d="M17.9851 20.6058C17.8461 21.3353 17.7564 22.0693 17.734 22.8078C17.716 23.3243 18.3169 23.6505 18.7473 23.3968C18.9446 23.279 19.0881 23.1204 19.1957 22.9165C19.2361 22.8395 19.3527 22.6628 19.3303 22.5948C19.3258 22.5858 19.2854 22.6447 19.3034 22.6356C19.1913 22.6673 19.0792 22.699 18.9626 22.7262C18.9536 22.7307 18.9402 22.7307 18.9312 22.7353C18.8505 22.6537 18.7698 22.5722 18.6891 22.4906C18.7653 22.5903 18.7563 22.5812 18.7653 22.6854C18.8146 23.2427 19.4782 23.6142 19.9132 23.1657C19.9625 23.1113 20.0118 23.0615 20.0656 23.0117C19.9715 23.057 19.8728 23.0479 19.7787 22.9935C19.7204 22.8939 19.6621 22.7942 19.6038 22.6945C19.6127 22.7217 19.6217 22.7489 19.6352 22.7761C19.7607 23.1204 20.0925 23.356 20.4647 23.2518C20.792 23.1612 21.0611 22.7625 20.9355 22.4136C20.5858 21.4531 19.5679 21.5754 18.9626 22.2052C19.3437 22.3638 19.7293 22.5269 20.1105 22.6854C20.0567 22.0285 19.7338 21.3172 18.9626 21.367C18.6487 21.3851 18.3707 21.5709 18.2048 21.8382C18.1465 21.9333 18.1061 22.0421 18.0613 22.1463C18.012 22.2596 17.9268 22.3003 18.0658 22.2188C18.4021 22.4136 18.7384 22.6084 19.0792 22.8078C19.0971 22.1871 19.1644 21.5754 19.2809 20.9638C19.4468 20.112 18.151 19.7495 17.9851 20.6058Z" fill="#727272"/>
<path d="M18.6532 28.367C18.8057 28.9741 18.9895 29.5676 19.2047 30.1521C19.3796 30.6278 19.9401 30.8272 20.3302 30.4511C20.5006 30.2835 20.6172 30.0887 20.6755 29.8531C20.6979 29.7579 20.7158 29.6446 20.7203 29.5495C20.7338 29.2595 20.7024 29.4997 20.7293 29.4861C20.6172 29.5178 20.5051 29.5495 20.3885 29.5767C20.4199 29.5767 20.4468 29.5721 20.4782 29.5721C20.3661 29.5404 20.254 29.5087 20.1374 29.4815C20.0477 29.4408 20.0746 29.4 20.1464 29.5268C20.1822 29.5903 20.2136 29.6446 20.2585 29.7035C20.3975 29.8848 20.5678 30.0071 20.7965 30.0388C20.9983 30.066 21.1911 30.0162 21.3615 29.8984C21.4557 29.8304 21.5409 29.7534 21.6036 29.6537C21.6305 29.5993 21.6574 29.545 21.6799 29.4906C21.7695 29.3139 21.6933 29.3592 21.4512 29.631C21.3301 29.631 21.2135 29.631 21.0925 29.631C21.0387 29.5857 20.9893 29.5359 20.9355 29.4906C20.9041 29.3773 20.8728 29.2641 20.8459 29.1463C20.8459 29.1734 20.8459 29.2006 20.8459 29.2278C20.8324 30.1022 22.1776 30.1022 22.191 29.2278C22.2 28.7702 21.8861 28.4123 21.4512 28.3217C21.218 28.2718 20.9849 28.3217 20.792 28.4621C20.6979 28.5301 20.6217 28.6071 20.5589 28.7022C20.5454 28.7294 20.532 28.7611 20.514 28.7883C20.3975 29.0149 20.4288 29.0103 20.6127 28.7747C20.7248 28.743 20.8369 28.7113 20.9535 28.6841C20.931 28.6887 20.9086 28.6887 20.8862 28.6932C20.9983 28.7249 21.1104 28.7566 21.227 28.7838C21.4198 28.8789 21.3212 28.8472 21.2494 28.7204C21.1956 28.6207 21.1239 28.5255 21.0431 28.4531C20.7876 28.222 20.4513 28.1631 20.1329 28.2764C19.8773 28.367 19.6845 28.5663 19.5545 28.7974C19.4827 28.9288 19.4469 29.0602 19.42 29.2052C19.4065 29.2686 19.42 29.4498 19.3796 29.4906C19.7563 29.5903 20.1284 29.6899 20.5051 29.7896C20.2898 29.2052 20.106 28.6071 19.9535 28.0045C19.7338 27.1618 18.438 27.5197 18.6532 28.367Z" fill="#727272"/>
<path d="M19.3303 34.8595C19.5724 35.5799 19.8818 36.2731 20.2629 36.9256C20.5364 37.3922 21.1418 37.3379 21.4243 36.9256C21.5005 36.8123 21.5543 36.6945 21.5902 36.5631C21.5947 36.5223 21.5991 36.4861 21.6081 36.4453C21.6799 36.1825 21.6171 36.1916 21.4108 36.477C21.2898 36.477 21.1732 36.477 21.0521 36.477C20.8638 36.4181 20.949 36.4317 21.0476 36.5404C21.1194 36.6175 21.209 36.699 21.3032 36.7534C21.496 36.8621 21.7247 36.9029 21.9444 36.8848C22.4466 36.8485 22.7919 36.5133 22.9578 36.0557C23.2582 35.2356 21.9579 34.8777 21.6619 35.6932C21.7471 35.4667 21.9579 35.5935 21.922 35.4848C21.8951 35.4078 21.7381 35.3036 21.6664 35.2628C21.4467 35.1359 21.1821 35.1087 20.9445 35.1903C20.7248 35.2628 20.5499 35.4304 20.4378 35.6343C20.3392 35.8155 20.3661 36.0874 20.2584 36.2414C20.6441 36.2414 21.0342 36.2414 21.4198 36.2414C21.0925 35.6841 20.8279 35.1133 20.6216 34.5016C20.3526 33.677 19.0523 34.0304 19.3303 34.8595Z" fill="#727272"/>
<path d="M21.1014 42.6116C21.1059 42.9877 21.1597 43.3637 21.2763 43.7171C21.3615 43.9754 21.5633 44.1657 21.8368 44.2019C22.0834 44.2336 22.3928 44.1204 22.5049 43.8757C22.5811 43.7126 22.6574 43.5495 22.7336 43.3909C22.7695 43.3139 22.8053 43.2414 22.8367 43.1644C22.8546 43.1281 22.8726 43.0874 22.8905 43.0511C22.9264 42.9832 22.9264 42.9832 22.8905 43.0511C22.7919 43.11 22.6932 43.1689 22.5946 43.2278C22.608 43.2233 22.626 43.2142 22.6394 43.2097C22.5184 43.2097 22.4018 43.2097 22.2807 43.2097C22.2583 43.2006 22.2314 43.187 22.209 43.178C22.1282 43.0964 22.0475 43.0149 21.9668 42.9333C21.8996 42.82 21.9623 42.9152 21.9892 42.9922C22.0117 43.0647 22.0386 43.1327 22.061 43.2052C22.1103 43.3456 22.1596 43.4906 22.2045 43.631C22.3211 43.9799 22.6663 44.2065 23.034 44.1068C23.3658 44.0162 23.6214 43.6175 23.5048 43.2686C23.312 42.7068 23.1506 41.7825 22.3704 41.8867C21.765 41.9683 21.5633 42.7113 21.3391 43.1916C21.7471 43.2459 22.1596 43.3003 22.5677 43.3547C22.4825 43.0874 22.4421 42.8699 22.4376 42.6071C22.4332 42.2537 22.1327 41.9094 21.7651 41.9275C21.4108 41.9456 21.0969 42.231 21.1014 42.6116Z" fill="#727272"/>
<path d="M27.2803 43.4361C27.2444 43.7442 27.2085 44.0568 27.1727 44.3649C27.1368 44.6549 27.4058 44.9494 27.6659 45.0219C27.9708 45.108 28.2533 44.9585 28.4237 44.7093C28.5448 44.5326 28.6658 44.3604 28.7869 44.1837C28.8407 44.1022 28.899 44.0251 28.9528 43.9436C28.9752 43.9119 28.9976 43.8801 29.02 43.8484C29.1187 43.7125 29.1052 43.7216 28.9842 43.8756C28.8721 43.9073 28.76 43.9391 28.6434 43.9662C28.6658 43.9662 28.6838 43.9662 28.7062 43.9662C28.5941 43.9345 28.482 43.9028 28.3654 43.8756C28.2309 43.64 28.186 43.5947 28.2309 43.7397C28.2443 43.7941 28.2533 43.853 28.2667 43.9073C28.2892 44.0206 28.3116 44.1293 28.3385 44.2426C28.3878 44.4782 28.4102 44.7546 28.5313 44.9675C28.6479 45.1669 28.8407 45.339 29.0649 45.4025C29.4102 45.4976 29.6926 45.3209 29.8944 45.0491C30.1141 44.7546 29.9393 44.2879 29.6523 44.1203C29.307 43.9164 28.9528 44.0704 28.7331 44.3649C28.7241 44.3785 28.7151 44.3921 28.7062 44.4012C28.899 44.2879 29.0918 44.1746 29.2891 44.0659C29.2756 44.0659 29.2622 44.0704 29.2487 44.0704C29.3608 44.1022 29.4729 44.1339 29.5895 44.1611C29.7061 44.22 29.7778 44.5507 29.7106 44.2154C29.6926 44.1203 29.6702 44.0297 29.6523 43.9345C29.6164 43.7669 29.585 43.5992 29.5492 43.4316C29.4684 43.0782 29.2577 42.7339 28.89 42.6297C28.482 42.5164 28.1591 42.752 27.9305 43.0601C27.7018 43.3727 27.4865 43.6944 27.2668 44.0115C27.6838 44.1248 28.1008 44.2381 28.5223 44.3559C28.5582 44.0478 28.5941 43.7352 28.6299 43.4271C28.6703 43.0601 28.2892 42.7475 27.9574 42.7475C27.5583 42.7565 27.3251 43.0737 27.2803 43.4361Z" fill="#727272"/>
<path d="M27.926 31.0265C27.7601 31.7514 27.6794 32.4944 27.6928 33.2375C27.7018 33.8763 28.6344 34.207 28.9483 33.5818C29.0828 33.31 29.2174 33.0426 29.3519 32.7708C29.4505 32.5714 29.5223 32.3223 29.7016 32.1818C29.603 32.2407 29.5043 32.2996 29.4057 32.3585C29.4057 32.354 29.4057 32.3494 29.4102 32.3449C29.1949 32.1773 28.9797 32.0142 28.76 31.8465C28.8452 32.1682 28.9304 32.4899 29.0156 32.8116C29.1232 33.2148 29.6389 33.4595 30.0021 33.2193C30.0648 33.1786 30.1276 33.1333 30.1904 33.0925C30.9078 32.6122 30.2352 31.4342 29.5133 31.919C29.4505 31.9598 29.3878 32.0051 29.325 32.0459C29.6523 32.1818 29.9841 32.3177 30.3114 32.4536C30.2262 32.132 30.1411 31.8103 30.0559 31.4886C29.9796 31.2032 29.7016 30.9857 29.4057 30.9902C28.4596 31.0083 28.1367 32.1954 27.787 32.9022C28.204 33.0155 28.621 33.1287 29.0425 33.2465C29.0335 32.6168 29.0873 32.0096 29.2263 31.3935C29.4147 30.5371 28.1188 30.1747 27.926 31.0265Z" fill="#727272"/>
<path d="M26.6436 20.8594C26.675 21.3941 26.7019 21.9242 26.7332 22.4588C26.7691 23.1293 27.6211 23.3876 27.9887 22.8031C28.2488 22.3863 28.5089 21.974 28.769 21.5572C28.3833 21.5572 27.9932 21.5572 27.6076 21.5572C27.7018 21.7203 27.7601 21.8698 27.769 22.0601C27.8004 22.6581 28.4775 22.9436 28.9169 22.5403C29.2577 22.2323 29.4774 21.8607 29.6433 21.4303C29.316 21.5662 28.9842 21.7022 28.6569 21.8381C28.6569 21.8471 28.6569 21.8562 28.6524 21.8607C28.5941 21.7611 28.5358 21.6614 28.4775 21.5617C28.491 21.5889 28.4999 21.6206 28.5134 21.6478C28.6524 21.9876 28.9573 22.2277 29.3429 22.1235C29.6568 22.0374 29.9527 21.6297 29.8137 21.2853C29.6971 21.009 29.5761 20.8413 29.3339 20.6601C28.9528 20.3746 28.4865 20.7009 28.3475 21.0678C28.2668 21.2763 28.1278 21.4303 27.9663 21.5798C28.3475 21.7384 28.7331 21.9015 29.1142 22.0601C29.0918 21.6342 28.9842 21.24 28.769 20.873C28.5044 20.4245 27.8767 20.4426 27.6076 20.873C27.3475 21.2899 27.0875 21.7022 26.8274 22.119C27.2444 22.2323 27.6614 22.3455 28.0829 22.4633C28.0515 21.9287 28.0246 21.3986 27.9932 20.864C27.9394 19.9895 26.5942 19.985 26.6436 20.8594Z" fill="#727272"/>
<path d="M27.0068 11.875C26.9664 12.2194 26.9485 12.5637 26.9575 12.908C26.9709 13.3792 27.5359 13.8142 27.9708 13.497C28.195 13.3339 28.334 13.1482 28.4103 12.8809C28.4282 12.8174 28.4461 12.7449 28.4551 12.6815C28.4641 12.6226 28.4999 12.6181 28.4506 12.6634C28.2175 12.8809 27.9708 13.1935 27.5987 12.7404C27.639 12.7902 27.6256 12.7857 27.5987 12.7268C27.6301 12.7948 27.6525 12.8718 27.6839 12.9398C27.7377 13.0576 27.8184 13.1618 27.9081 13.2524C28.1861 13.5288 28.5986 13.5831 28.9349 13.3883C29.2532 13.2071 29.3564 12.7721 29.177 12.4595C28.9887 12.1378 28.5762 12.0336 28.2578 12.2148C28.2444 12.2239 28.2264 12.233 28.213 12.242C28.3251 12.2103 28.4372 12.1786 28.5537 12.1514C28.5896 12.1469 28.9125 12.3281 28.8856 12.3372C28.9035 12.3734 28.9035 12.3734 28.89 12.3417C28.8766 12.3055 28.8631 12.2692 28.8452 12.233C28.7914 12.1016 28.7286 11.9792 28.63 11.8705C28.4103 11.6394 28.0695 11.5262 27.7601 11.6258C27.4686 11.7165 27.2758 11.9521 27.1817 12.2375C27.1592 12.3009 27.1503 12.3644 27.1323 12.4323C27.1234 12.464 27.1144 12.4912 27.1099 12.5229C27.092 12.5818 27.092 12.5818 27.1144 12.5229C27.1413 12.4368 27.1996 12.3689 27.2893 12.3236C27.6256 12.5184 27.9619 12.7132 28.3026 12.9126C28.2937 12.5682 28.3116 12.2239 28.352 11.8796C28.3968 11.5262 28.0112 11.1864 27.6794 11.1999C27.2803 11.2181 27.0561 11.499 27.0068 11.875Z" fill="#727272"/>
<path d="M26.5942 4.90669C26.4687 5.40507 26.5315 5.91705 26.796 6.35653C27.1099 6.89116 27.8318 6.72805 28.0246 6.19342C28.0964 5.99407 27.9887 6.31575 28.056 6.11187C28.0829 6.03485 28.1053 6.07109 28.0381 6.10281C27.8318 6.21154 27.5538 6.13905 27.491 5.86721C27.5762 6.22514 27.9753 6.43808 28.3206 6.34294C28.6793 6.24326 28.8766 5.86721 28.7914 5.50475C28.6703 4.98824 28.1143 4.71187 27.6166 4.82967C27.1278 4.952 26.8902 5.38242 26.7288 5.82643C27.1368 5.77206 27.5493 5.71769 27.9574 5.66332C27.8901 5.54553 27.8811 5.55459 27.8677 5.41413C27.8766 5.48663 27.8722 5.39601 27.8722 5.37336C27.8811 5.174 27.8453 5.45491 27.8901 5.26009C27.9753 4.91575 27.778 4.50799 27.4193 4.4219C27.074 4.34941 26.6884 4.53517 26.5942 4.90669Z" fill="#727272"/>
<path d="M7.36712 3.30289C7.16983 3.56568 6.99047 3.84205 6.83353 4.13202C6.56898 4.60775 7.01737 5.35079 7.59132 5.12878C7.79758 5.05176 7.99936 4.97021 8.20562 4.89318C7.9321 4.73461 7.65409 4.57603 7.37609 4.41746C7.41196 4.52166 7.4299 4.58962 7.42541 4.69383C7.42093 5.03817 7.73929 5.40516 8.098 5.37344C8.4343 5.34626 8.72127 5.2647 9.0217 5.11972C9.34902 4.96114 9.43422 4.48542 9.26383 4.19092C9.06653 3.85111 8.67195 3.78768 8.34462 3.94626C8.27736 3.97797 8.15181 4.00969 8.098 4.01422C8.3222 4.24076 8.5464 4.46729 8.77059 4.69383C8.77508 4.47635 8.74369 4.25888 8.67195 4.055C8.55985 3.73331 8.20562 3.44335 7.84242 3.57927C7.63616 3.65629 7.43438 3.73784 7.22812 3.81487C7.47922 4.14561 7.7348 4.48089 7.98591 4.81163C8.14733 4.52166 8.3222 4.24529 8.51949 3.9825C8.73921 3.68801 8.56433 3.22134 8.27736 3.0537C7.94107 2.85888 7.58684 3.0084 7.36712 3.30289Z" fill="#727272"/>
<path d="M3.56026 10.9327C3.30468 11.499 3.08496 12.079 2.90561 12.677C2.79351 13.0485 3.04012 13.3929 3.37642 13.5152C3.66339 13.6194 3.97278 13.556 4.22388 13.3929C4.3315 13.3204 4.40324 13.2479 4.48395 13.1527C4.79334 12.7812 4.36737 13.2615 4.11627 12.9489C4.05798 12.8492 3.99969 12.7495 3.9414 12.6498C3.90552 12.523 3.93243 12.7858 3.93243 12.7812C3.94588 12.8854 3.97278 12.9942 4.02659 13.0893C4.12972 13.266 4.31805 13.411 4.51086 13.4654C4.87406 13.565 5.34039 13.4246 5.49732 13.0531C5.64081 12.7178 5.59597 12.3236 5.25519 12.1243C4.9727 11.9566 4.47947 12.0291 4.33598 12.3689C4.34943 12.3508 4.36289 12.3327 4.38082 12.3191C4.47947 12.2602 4.57812 12.2013 4.67676 12.1424C4.81128 12.1832 4.9458 12.2239 5.08032 12.2647C5.13861 12.3644 5.1969 12.4641 5.25519 12.5637C5.29106 12.6906 5.26416 12.378 5.25519 12.3463C5.21932 12.2104 5.15654 12.088 5.06686 11.9883C4.90096 11.8116 4.68573 11.7074 4.4436 11.6938C4.22388 11.6848 4.02211 11.7482 3.84275 11.8751C3.75755 11.934 3.68581 12.0019 3.61855 12.0835C3.34055 12.4097 3.53336 12.1333 3.73962 12.2058C3.89656 12.4867 4.05349 12.7631 4.21043 13.044C4.35392 12.5592 4.52431 12.088 4.73057 11.6259C4.87854 11.2906 4.82473 10.8964 4.48844 10.6971C4.1925 10.5204 3.70823 10.5974 3.56026 10.9327Z" fill="#727272"/>
<path d="M2.07158 18.9475C1.92809 19.7268 1.92809 20.4834 2.08054 21.2627C2.15677 21.6478 2.56929 21.7928 2.91007 21.7384C3.10737 21.7067 3.29121 21.5935 3.43021 21.444C3.4885 21.3805 3.54231 21.3035 3.59163 21.231C3.61854 21.1902 3.64095 21.1495 3.66337 21.1041C3.70373 21.0407 3.69028 21.0452 3.61405 21.1087C3.49299 21.1087 3.3764 21.1087 3.25534 21.1087C3.28672 21.1177 3.31811 21.1268 3.3495 21.1359C3.25085 21.077 3.15221 21.0181 3.05356 20.9592C3.00424 20.855 2.99975 20.8595 3.04459 20.9728C3.06701 21.0271 3.08943 21.0815 3.11185 21.1359C3.18359 21.2718 3.28224 21.3805 3.40779 21.4621C3.70821 21.666 3.98173 21.6524 4.30458 21.5028C4.63639 21.3533 4.7171 20.864 4.54671 20.574C4.34942 20.2297 3.95931 20.1799 3.6275 20.3294C3.60508 20.3384 3.57818 20.352 3.55576 20.3611C3.73063 20.3384 3.90102 20.3158 4.0759 20.2931C4.04899 20.2841 4.02209 20.2796 3.99519 20.2705C4.09383 20.3294 4.19248 20.3883 4.29113 20.4472C4.31803 20.5378 4.31803 20.5469 4.29561 20.4789C4.27319 20.4064 4.24629 20.3384 4.2149 20.275C4.17454 20.198 4.1297 20.121 4.06693 20.0575C3.8786 19.8537 3.61854 19.7585 3.34501 19.7857C3.10737 19.8084 2.89662 19.9262 2.73072 20.0983C2.65 20.1799 2.58275 20.275 2.52445 20.3747C2.511 20.4019 2.49307 20.4291 2.47961 20.4562C2.39442 20.5831 2.41684 20.5695 2.55136 20.42C2.82488 20.5786 3.10288 20.7372 3.38089 20.8957C3.27776 20.3702 3.27327 19.831 3.37192 19.3054C3.43918 18.943 3.27327 18.5715 2.9011 18.4673C2.56929 18.3812 2.13884 18.5851 2.07158 18.9475Z" fill="#727272"/>
<path d="M3.03115 28.7565C3.21947 29.1371 3.40331 29.5177 3.59164 29.8983C3.75755 30.2336 4.21042 30.3106 4.51085 30.143C4.75298 30.007 4.91889 29.7896 4.99511 29.5177C5.03098 29.3954 5.0534 29.2413 5.03995 29.1145C5.0265 28.9695 5.08927 29.0103 5.01305 29.0782C4.9144 29.1371 4.81575 29.196 4.71711 29.2549C4.70814 29.2595 4.69917 29.2595 4.6902 29.264C4.57811 29.2323 4.46601 29.2006 4.34942 29.1734C4.58259 29.3093 4.69469 29.5268 5.03547 29.5268C5.43902 29.5268 5.5287 29.2866 5.77083 29.0465C5.67219 29.1054 5.57354 29.1643 5.47489 29.2232C5.34486 29.1417 5.21483 29.0601 5.08479 28.974C5.1386 29.3365 5.59148 29.5358 5.91432 29.4498C6.29994 29.341 6.43894 28.9786 6.38513 28.6116C6.32236 28.2038 5.94122 27.9002 5.54664 27.8595C5.08479 27.8142 4.78437 28.0679 4.56465 28.4485C4.64537 28.3669 4.72608 28.2853 4.80679 28.2038C4.78437 28.2219 4.75746 28.24 4.73504 28.2582C4.84714 28.2264 4.95924 28.1947 5.07582 28.1675C5.0534 28.1675 5.0265 28.1675 5.00408 28.1675C5.11618 28.1993 5.22828 28.231 5.34486 28.2582C5.26415 28.2129 5.0534 27.9818 4.87405 27.932C4.61846 27.8595 4.34942 27.9138 4.13868 28.0724C3.95035 28.2129 3.82032 28.4213 3.75306 28.6433C3.70822 28.7837 3.75755 29.0692 3.6858 29.1688C3.76651 29.0873 3.84722 29.0057 3.92793 28.9242C3.90103 28.9378 3.87413 28.9559 3.84274 28.9695C4.14765 29.051 4.45704 29.1326 4.76195 29.2142C4.57362 28.8336 4.38978 28.453 4.20145 28.0724C3.80687 27.2841 2.64553 27.9727 3.03115 28.7565Z" fill="#727272"/>
<path d="M7.18329 38.851C7.16087 39.4355 7.76172 39.7662 8.2684 39.6077C8.51053 39.5306 8.68541 39.3585 8.80199 39.141C8.81992 39.1048 8.83786 39.064 8.8558 39.0277C8.95444 38.8692 8.8558 38.9145 8.55089 39.1727C8.41189 39.1546 8.47466 39.1546 8.57331 39.209C8.89167 39.3857 9.30867 39.286 9.49252 38.9643C9.67187 38.6517 9.56874 38.2122 9.25038 38.0355C8.91857 37.8497 8.54192 37.741 8.17424 37.895C7.98591 37.9766 7.82897 38.1125 7.72136 38.2938C7.68997 38.3436 7.65859 38.4025 7.64065 38.4614C7.63168 38.4795 7.62271 38.4976 7.61375 38.5158C7.84691 38.253 8.08904 38.2303 8.34463 38.4478C8.40292 38.5475 8.46121 38.6471 8.5195 38.7468C8.52399 38.7831 8.52847 38.8193 8.53295 38.8556C8.54641 38.4976 8.21459 38.1578 7.86036 38.176C7.47923 38.1895 7.19674 38.4705 7.18329 38.851Z" fill="#727272"/>
<path d="M32.0378 5.18314C32.1185 5.59091 32.2575 5.97149 32.4324 6.34754C32.5983 6.69641 33.0511 6.74172 33.3516 6.5922C33.5219 6.50612 33.6609 6.35207 33.7506 6.18443C33.7775 6.1346 33.7955 6.08023 33.8224 6.02586C33.9659 5.71324 33.8179 6.18443 33.4726 6.14819C33.3605 6.11647 33.2484 6.08476 33.1318 6.05757C33.0556 6.02133 33.2439 6.14366 33.2439 6.14366C33.3157 6.19803 33.365 6.22974 33.4502 6.26599C33.6251 6.34301 33.8044 6.3566 33.9928 6.32942C34.3963 6.26146 34.634 5.99867 34.7864 5.63168C34.9254 5.29188 34.634 4.88411 34.3156 4.7935C33.93 4.68476 33.6296 4.92942 33.4861 5.26923C33.643 4.97473 33.8403 4.9113 34.0735 5.07893C34.0555 5.06081 34.0376 5.04269 34.0152 5.0291C33.93 4.94301 33.7686 4.8524 33.652 4.82068C33.4368 4.76178 33.2036 4.79803 33.0153 4.9113C32.8583 5.00644 32.7462 5.15596 32.67 5.31906C32.6521 5.35984 32.6296 5.40515 32.6117 5.45045C32.5624 5.59544 32.5893 5.45952 32.67 5.42327C32.9749 5.50482 33.2843 5.58638 33.5892 5.66793C33.4637 5.40062 33.3874 5.11971 33.3291 4.82974C33.2619 4.46728 32.8314 4.2634 32.4996 4.35402C32.1364 4.44916 31.9705 4.82068 32.0378 5.18314Z" fill="#727272"/>
<path d="M33.5982 12.9623C33.6834 13.3928 33.773 13.8232 33.8582 14.2536C34.0017 14.9649 34.9478 14.8335 35.1541 14.2536C35.2214 14.0588 35.3379 13.9319 35.4859 13.796C35.1317 13.7507 34.7819 13.7054 34.4277 13.6601C34.5443 13.9319 34.6653 14.2083 34.7819 14.4801C34.9164 14.7928 35.4366 14.9287 35.7011 14.7248C35.8626 14.6025 35.9926 14.4937 36.0957 14.3125C36.1316 14.2491 36.1719 14.1721 36.1944 14.0996C36.2033 14.0678 36.2168 14.0361 36.2347 14.0089C36.3423 13.8096 36.1361 13.7462 35.6115 13.8187C35.5621 14.1811 35.9567 14.4983 36.284 14.4983C36.6876 14.4983 36.9073 14.1856 36.9566 13.8187C37.0329 13.2523 36.5082 12.7403 35.9657 12.7403C35.6922 12.7403 35.4455 12.8627 35.2617 13.0575C35.1765 13.1481 35.1182 13.2478 35.0599 13.3565C35.0241 13.429 34.8851 13.6555 35.0241 13.5513C35.329 13.6329 35.6384 13.7144 35.9433 13.796C35.8267 13.5242 35.7056 13.2478 35.589 12.9759C35.4052 12.55 34.8178 12.5772 34.5308 12.84C34.208 13.1345 34.0017 13.4879 33.8538 13.8957C34.2842 13.8957 34.7192 13.8957 35.1496 13.8957C35.0644 13.4653 34.9747 13.0348 34.8895 12.6044C34.7236 11.7436 33.4233 12.106 33.5982 12.9623Z" fill="#727272"/>
<path d="M34.7774 23.356C34.7371 23.6958 34.7774 24.0446 34.8671 24.3708C34.9792 24.765 35.4904 25.0323 35.8536 24.7786C36.0912 24.611 36.2347 24.4297 36.3379 24.1579C36.3648 24.0899 36.3872 24.0174 36.4096 23.945C36.45 23.8 36.4096 23.9948 36.293 24.0129C36.172 24.0129 36.0554 24.0129 35.9343 24.0129C35.8222 23.9676 35.7505 23.8996 35.7325 23.8C35.7191 23.7547 35.7236 23.7683 35.7505 23.8407C35.7639 23.8815 35.7774 23.9268 35.7908 23.9676C35.867 24.176 35.9747 24.3437 36.145 24.4841C36.5127 24.7831 36.9297 24.7333 37.2885 24.4524C37.5754 24.2259 37.5216 23.7275 37.2885 23.4919C37.006 23.2064 36.6248 23.2653 36.3379 23.4919C36.3244 23.5055 36.3065 23.5145 36.293 23.5281C36.3917 23.4692 36.4903 23.4103 36.589 23.3514C36.571 23.356 36.5531 23.3605 36.5352 23.365C36.6562 23.365 36.7728 23.365 36.8939 23.365C36.9746 23.3786 37.0912 23.6278 37.0418 23.4783C37.006 23.3605 36.9611 23.2382 36.8983 23.1339C36.71 22.8259 36.3782 22.6492 36.024 22.6854C35.7101 22.7171 35.4545 22.9165 35.2841 23.1793C35.2124 23.2925 35.1631 23.4194 35.1227 23.5462C35.1093 23.587 35.0824 23.6459 35.0779 23.6867C35.0734 23.7456 35.0644 23.6731 35.1765 23.5961C35.5038 23.732 35.8357 23.8679 36.163 24.0039C36.1002 23.7818 36.0912 23.5825 36.1181 23.3514C36.1585 22.9844 35.7774 22.6718 35.4456 22.6718C35.0554 22.6763 34.8223 22.989 34.7774 23.356Z" fill="#727272"/>
<path d="M34.4053 31.3572C34.3694 31.8012 34.4053 32.2362 34.4725 32.6757C34.5532 33.1876 35.2752 33.319 35.598 32.9747C35.7146 32.8524 35.8356 32.73 35.9612 32.6168C36.0733 32.5171 36.1899 32.4174 36.2796 32.354C35.9522 32.2181 35.6204 32.0821 35.2931 31.9462C35.3334 32.064 35.3334 31.9281 35.32 32.055C35.329 31.9598 35.2662 32.141 35.311 32.064C35.1362 32.3857 35.2348 32.8071 35.5532 32.9928C35.8626 33.174 36.2975 33.0744 36.4724 32.7482C36.6652 32.3902 36.728 31.9734 36.5934 31.5838C36.4634 31.2122 35.9791 30.8996 35.607 31.176C35.2662 31.4297 34.9478 31.7016 34.6564 32.0096C35.033 32.1093 35.4052 32.209 35.7818 32.3087C35.737 32.0142 35.737 31.6698 35.7594 31.3482C35.7863 30.9948 35.4321 30.655 35.0868 30.6685C34.6922 30.6957 34.4367 30.9766 34.4053 31.3572Z" fill="#727272"/>
<path d="M33.9748 40.233C33.7327 40.6453 33.5488 41.0984 33.4457 41.5696C33.365 41.9275 33.5533 42.3035 33.9165 42.4077C34.2932 42.5119 34.616 42.2809 34.746 41.932C34.7864 41.8187 34.9209 41.5741 34.9927 41.4789C34.6743 41.4789 34.3604 41.4789 34.0421 41.4789C33.9614 41.3793 33.9389 41.2705 33.9703 41.1437C33.912 41.5061 34.0645 41.8731 34.4411 41.9819C34.764 42.0725 35.2079 41.8731 35.2707 41.5061C35.3334 41.1301 35.2662 40.7993 34.9971 40.5184C34.764 40.2738 34.2707 40.233 34.0466 40.5184C33.7865 40.8446 33.5982 41.1754 33.4502 41.5696C33.8806 41.6919 34.3156 41.8097 34.746 41.932C34.8312 41.5514 34.9433 41.2524 35.1406 40.9217C35.3245 40.6045 35.2124 40.1741 34.8985 39.9929C34.5801 39.8026 34.1631 39.9158 33.9748 40.233Z" fill="#727272"/>
<path d="M38.8982 42.9469C38.6202 43.3139 38.4902 43.767 38.4677 44.2246C38.4543 44.4919 38.6471 44.7501 38.8803 44.8453C39.1448 44.954 39.4004 44.8906 39.6156 44.7048C39.9474 44.4194 40.2792 44.1294 40.6111 43.844C40.2568 43.7987 39.9071 43.7534 39.5528 43.7081C39.5259 43.6673 39.5394 43.6084 39.5439 43.5631C39.5484 43.5314 39.6201 43.4226 39.5484 43.5359C39.3556 43.8485 39.4811 44.2835 39.7905 44.4647C40.1133 44.655 40.5169 44.5327 40.7097 44.22C40.9384 43.853 40.9339 43.3864 40.7142 43.0149C40.4765 42.6162 39.9878 42.5935 39.656 42.8789C39.3242 43.1644 38.9924 43.4543 38.6605 43.7398C39.0417 43.8984 39.4273 44.0615 39.8084 44.22C39.8174 44.0161 39.7726 44.3106 39.8174 44.1158C39.8353 44.0479 39.8533 43.9754 39.8757 43.9074C39.8398 44.0026 39.9295 43.8123 39.9295 43.8077C39.9654 43.7443 40.0057 43.6854 40.0506 43.631C40.2703 43.3365 40.0954 42.8699 39.8084 42.7022C39.4721 42.4984 39.1224 42.6524 38.8982 42.9469Z" fill="#727272"/>
<path d="M41.3823 34.0485C41.2881 34.565 41.2343 35.086 41.2298 35.6161C41.2209 36.2821 42.158 36.554 42.4853 35.9605C42.6871 35.5889 42.9248 35.2673 43.2207 34.9682C42.9472 35.0045 42.6781 35.0407 42.4046 35.0724C42.3912 35.0634 42.3732 35.0498 42.3598 35.0407C42.3015 34.941 42.2432 34.8414 42.1849 34.7417C42.1715 34.7009 42.2163 34.5741 42.1715 34.719C42.1401 34.8097 42.1221 34.9546 42.1177 35.0407C42.1087 35.2582 42.1715 35.4711 42.297 35.6478C42.4405 35.8427 42.6781 35.9741 42.9248 35.9741C43.0593 35.9741 43.2162 35.9333 43.3328 35.8698C43.3552 35.8563 43.3732 35.8472 43.3956 35.8336C43.5032 35.7656 43.4718 35.7611 43.3014 35.82C43.1893 35.7883 43.0772 35.7566 42.9606 35.7294C42.7813 35.6388 42.7678 35.5346 42.7858 35.4032C42.7364 35.7656 42.8754 36.1326 43.2566 36.2414C43.5704 36.3275 44.0323 36.1326 44.0861 35.7656C44.1399 35.376 44.122 34.9818 43.826 34.6873C43.6781 34.5423 43.4539 34.4563 43.2476 34.4608C43.1131 34.4653 42.9561 34.5106 42.8396 34.5741C42.8082 34.5922 42.6602 34.6556 42.7454 34.6375C42.8665 34.6375 42.9831 34.6375 43.1041 34.6375C43.0862 34.633 43.0638 34.6239 43.0458 34.6194C43.1445 34.6783 43.2431 34.7372 43.3418 34.7961C43.3866 35.1721 43.427 35.2673 43.4673 35.0815C43.4853 35.0362 43.4942 34.9909 43.5032 34.941C43.5256 34.8368 43.5346 34.7281 43.5256 34.6194C43.5077 34.3203 43.3552 34.0349 43.0817 33.9035C42.8127 33.7676 42.4898 33.7857 42.2656 34.0077C41.8935 34.3838 41.5751 34.8097 41.3195 35.2718C41.7365 35.3851 42.1535 35.4983 42.575 35.6161C42.5795 35.2129 42.6109 34.8097 42.6826 34.411C42.7454 34.0485 42.584 33.677 42.2118 33.5728C41.88 33.4822 41.4451 33.686 41.3823 34.0485Z" fill="#727272"/>
<path d="M42.288 24.6926C42.0952 25.1592 42.0907 25.6893 42.2387 26.1696C42.445 26.8311 43.3148 26.7993 43.5346 26.1696C43.6467 25.8434 43.8484 25.5851 44.104 25.3586C43.7229 25.2 43.3373 25.0369 42.9561 24.8783C42.9696 25.1094 42.9875 25.3405 43.001 25.567C43.0279 25.9657 43.2879 26.2013 43.6736 26.2466C43.8888 26.2738 44.0861 26.2013 44.2654 26.0835C44.3417 26.0337 44.4089 25.9748 44.4672 25.9068C44.4896 25.8751 44.5165 25.8479 44.539 25.8207C44.6197 25.7346 44.5524 25.7527 44.3327 25.8751C44.2206 25.8434 44.1085 25.8116 43.9919 25.7845C43.956 25.7437 43.9157 25.7029 43.8798 25.6621C43.8484 25.5489 43.817 25.4356 43.7901 25.3178C43.7901 25.3359 43.7901 25.354 43.7946 25.3722C43.826 25.2589 43.8574 25.1456 43.8843 25.0278C43.8753 25.0414 43.8664 25.0595 43.8574 25.0731C43.4 25.8207 44.5659 26.5049 45.0187 25.7573C45.2878 25.3178 45.0636 24.7469 44.5928 24.5748C44.3461 24.4841 44.095 24.5023 43.8664 24.6291C43.7722 24.679 43.6915 24.7515 43.6153 24.8285C43.5973 24.8466 43.5839 24.8693 43.5659 24.8874C43.4763 24.978 43.5121 24.978 43.6736 24.8874C43.8978 25.1139 44.122 25.3405 44.3461 25.567C44.3327 25.3359 44.3148 25.1049 44.3013 24.8783C44.261 24.2757 43.6018 23.9994 43.1534 24.3981C42.723 24.7832 42.427 25.2634 42.2387 25.8071C42.6692 25.8071 43.1041 25.8071 43.5346 25.8071C43.4494 25.5307 43.4763 25.3178 43.5839 25.055C43.7229 24.7152 43.4314 24.3074 43.1131 24.2168C42.7274 24.1081 42.427 24.3527 42.288 24.6926Z" fill="#727272"/>
<path d="M41.7276 12.7811C41.7634 13.1617 41.8038 13.5468 41.8397 13.9274C41.871 14.2627 42.0683 14.5526 42.4226 14.5934C42.7454 14.6342 43.0772 14.4394 43.1624 14.1086C43.2342 13.8187 43.3328 13.5559 43.4763 13.2976C43.0907 13.2976 42.7006 13.2976 42.315 13.2976C42.3822 13.4245 42.4495 13.5513 42.5123 13.6737C42.7589 14.1403 43.4135 14.086 43.6736 13.6737C43.696 13.6374 43.7274 13.6057 43.7274 13.5921C43.7991 13.5287 43.7498 13.5332 43.5884 13.6057C43.5167 13.6465 43.4449 13.6555 43.3732 13.642C43.2925 13.5604 43.2118 13.4788 43.131 13.3973C43.1266 13.3792 43.1221 13.361 43.1176 13.3429C43.3777 14.1721 44.678 13.8187 44.4135 12.9805C44.2789 12.5546 43.9112 12.2873 43.4629 12.3009C43.0279 12.3144 42.723 12.6407 42.5078 12.985C42.8934 12.985 43.2835 12.985 43.6691 12.985C43.6019 12.8581 43.5346 12.7313 43.4718 12.6089C43.2387 12.1649 42.5481 12.1695 42.3105 12.6089C42.1177 12.9669 41.9652 13.3475 41.8621 13.7462C42.3015 13.8051 42.7409 13.8685 43.1848 13.9274C43.149 13.5468 43.1086 13.1617 43.0727 12.7811C43.0369 12.4141 42.7903 12.1015 42.4002 12.1015C42.0639 12.1015 41.6917 12.4141 41.7276 12.7811Z" fill="#727272"/>
<path d="M38.396 5.18309C38.5664 5.61804 38.7771 5.9805 39.0731 6.34296C39.4138 6.75979 40.055 6.48795 40.1985 6.04393C40.3017 5.71772 40.3465 5.36432 40.3151 5.02452C39.8981 5.13779 39.4811 5.25105 39.0596 5.36885C39.1896 5.62258 39.3735 5.85364 39.5932 6.03487C39.8757 6.26594 40.2703 6.31125 40.5438 6.03487C40.7814 5.79474 40.8263 5.30542 40.5438 5.07436C40.4631 5.01092 40.3869 4.93843 40.3241 4.86141C40.2568 4.77533 40.3644 4.92937 40.3061 4.83423C40.2748 4.78439 40.2478 4.73455 40.2209 4.68471C40.0819 4.41287 39.7367 4.29054 39.4587 4.36756C39.1941 4.44005 38.9385 4.73002 38.9654 5.02452C38.9923 5.30995 38.9834 5.42322 38.8982 5.68147C39.2748 5.5818 39.647 5.48212 40.0237 5.38245C39.9654 5.31448 39.9071 5.2284 39.8398 5.1106C39.8084 5.05623 39.777 4.99733 39.7456 4.94296C39.7367 4.92937 39.6649 4.7572 39.6874 4.82516C39.5528 4.48536 39.239 4.24523 38.8578 4.34944C38.544 4.43552 38.2615 4.83876 38.396 5.18309Z" fill="#727272"/>
<path d="M45.1891 4.65756C45.2429 4.943 45.3506 5.21937 45.4985 5.47309C45.651 5.73135 45.9693 5.86727 46.2563 5.78572C46.5612 5.69963 46.7226 5.43232 46.7495 5.12876C46.7809 4.81161 46.8123 4.48992 46.8437 4.17277C46.5074 4.36759 46.1711 4.56242 45.8303 4.76177C46.0366 4.91581 46.2429 5.07439 46.4491 5.22843C46.7406 5.44591 47.2024 5.27827 47.3683 4.98377C47.5701 4.63944 47.4177 4.27245 47.1262 4.05497C46.9199 3.90093 46.7137 3.74235 46.5074 3.58831C46.3191 3.44785 46.0187 3.47504 45.8303 3.58831C45.6106 3.7197 45.5209 3.92811 45.4985 4.1773C45.4671 4.49445 45.4358 4.81614 45.4044 5.13329C45.8214 5.02002 46.2384 4.90675 46.6599 4.78895C46.5523 4.60772 46.5254 4.52164 46.485 4.29963C46.4177 3.93717 45.9873 3.73329 45.6555 3.8239C45.2878 3.92358 45.1264 4.2951 45.1891 4.65756Z" fill="#727272"/>
<path d="M48.1754 12.8129C48.2382 13.1889 48.3279 13.5514 48.449 13.9138C48.588 14.3443 49.0364 14.5255 49.4354 14.3216C49.682 14.1947 49.839 13.9591 49.9018 13.6918C49.9331 13.5695 49.9376 13.4381 49.9466 13.3067C49.9466 13.2614 49.9511 13.2161 49.9556 13.1708C49.9466 13.3611 49.821 13.4834 49.5744 13.5468C49.4623 13.5151 49.3502 13.4834 49.2337 13.4562C49.7628 13.719 50.1753 13.8957 50.7806 13.7598C51.6236 13.5695 51.2694 12.2556 50.4219 12.4504C50.2112 12.5002 50.0901 12.3734 49.9107 12.2828C49.5969 12.1287 49.2381 12.1514 48.9646 12.3689C48.7584 12.532 48.6642 12.7585 48.6283 13.0168C48.6149 13.1164 48.6104 13.2116 48.6014 13.3113C48.5925 13.3973 48.5969 13.4019 48.6059 13.3339C48.5611 13.488 48.6104 13.4245 48.7584 13.1527C49.0857 13.2886 49.4175 13.4245 49.7448 13.5604C49.6282 13.198 49.5386 12.8355 49.4713 12.4595C49.4085 12.097 48.9691 11.8931 48.6418 11.9837C48.2651 12.0789 48.1127 12.4504 48.1754 12.8129Z" fill="#727272"/>
<path d="M49.7403 22.6446C49.6955 22.9889 49.6462 23.3333 49.6013 23.6776C49.561 23.9812 49.6282 24.2802 49.9107 24.4433C50.1439 24.5838 50.5474 24.5702 50.7268 24.3391C50.8254 24.2077 50.9241 24.099 51.081 24.0446C50.7985 23.8271 50.5116 23.6097 50.2291 23.3876C50.238 23.6595 50.2425 23.9313 50.2515 24.2032C50.265 24.6563 50.6685 24.9643 51.1034 24.8601C51.3187 24.8103 51.498 24.7016 51.6684 24.5656L51.8343 24.4342C51.8209 24.4161 51.6057 24.4297 51.5563 24.3753C51.498 24.2757 51.4397 24.176 51.3815 24.0763C51.3904 24.099 51.3949 24.1216 51.4039 24.1443C51.6864 24.9643 52.9867 24.6109 52.6997 23.7818C52.5428 23.3333 52.1841 23.0796 51.7088 23.0931C51.516 23.0977 51.3142 23.1611 51.1483 23.2608C51.0138 23.3423 50.8882 23.51 50.7358 23.5462C51.0183 23.7637 51.3052 23.9812 51.5877 24.2032C51.5787 23.9313 51.5743 23.6595 51.5653 23.3876C51.5563 22.9708 51.1393 22.5857 50.7133 22.7307C50.3412 22.8621 50.0094 23.0614 49.7672 23.3786C50.1439 23.6006 50.5161 23.8181 50.8927 24.0401C50.9375 23.6957 50.9869 23.3514 51.0317 23.0071C51.081 22.6446 50.9465 22.2776 50.5609 22.1689C50.256 22.0828 49.7897 22.2776 49.7403 22.6446Z" fill="#727272"/>
<path d="M47.8078 33.8989C47.7136 34.284 47.6194 34.6691 47.5298 35.0542C47.4446 35.4076 47.6374 35.7973 48.0006 35.8924C48.3234 35.9785 48.6328 35.9151 48.8974 35.7021C49.1081 35.53 49.1843 35.2626 49.3771 35.095C49.2785 35.1539 49.1798 35.2128 49.0812 35.2717C49.1126 35.2581 49.144 35.2445 49.1798 35.2309C49.0588 35.2309 48.9422 35.2309 48.8211 35.2309C48.8525 35.2355 48.8839 35.2445 48.9198 35.2491C48.7853 35.1448 48.6507 35.0406 48.5162 34.9364C48.5072 34.8821 48.5117 34.8957 48.5252 34.9863C48.5566 35.0633 48.588 35.1403 48.6238 35.2173C48.7135 35.3669 48.8525 35.4711 49.005 35.539C49.1664 35.6115 49.3457 35.6206 49.5206 35.5843C49.5789 35.5798 49.6372 35.5617 49.691 35.539C49.9556 35.4529 49.9018 35.4258 49.5296 35.462C49.4489 35.3804 49.3682 35.2989 49.2875 35.2173C49.2964 35.2309 49.3099 35.2491 49.3188 35.2626C49.2875 35.1494 49.2561 35.0361 49.2292 34.9183C49.2292 34.9364 49.2292 34.9591 49.2247 34.9772C49.1843 35.8516 50.5295 35.8516 50.5699 34.9772C50.5878 34.6057 50.3367 34.2931 49.9914 34.1843C49.83 34.1345 49.6507 34.13 49.4847 34.1707C49.4265 34.1843 49.1978 34.2296 49.265 34.2387C49.3771 34.2704 49.4892 34.3021 49.6058 34.3293C49.5834 34.3157 49.5655 34.2976 49.543 34.284C49.6237 34.3656 49.7045 34.4471 49.7852 34.5287C49.7538 34.4652 49.682 34.2251 49.5699 34.1073C49.3906 33.9261 49.0633 33.8445 48.8211 33.9125C48.6238 33.9669 48.4534 34.0847 48.3189 34.2342C48.2472 34.3157 48.1844 34.4063 48.1306 34.5015C48.1127 34.5332 48.0992 34.5649 48.0813 34.5921C47.9557 34.7643 48.0499 34.7597 48.3638 34.574C48.5207 34.8549 48.6776 35.1313 48.8346 35.4122C48.9287 35.027 49.0229 34.6419 49.1126 34.2568C49.3099 33.4096 48.014 33.0471 47.8078 33.8989Z" fill="#727272"/>
<path d="M46.3819 42.0724C46.4805 42.1494 46.5792 42.2264 46.6778 42.3035C46.9648 42.53 47.4311 42.3488 47.597 42.0588C47.7988 41.7099 47.6463 41.352 47.3549 41.13C47.2562 41.053 47.1576 40.9759 47.0589 40.8989C46.772 40.6724 46.3056 40.8536 46.1397 41.1436C45.938 41.4924 46.0949 41.8458 46.3819 42.0724Z" fill="#727272"/>
</g>
<defs>
<clipPath id="clip0_4_3354">
<rect width="55" height="48.2388" fill="white"/>
</clipPath>
</defs>
</svg>
