<svg width="35" height="41" viewBox="0 0 35 41" fill="none" xmlns="http://www.w3.org/2000/svg">
<g clip-path="url(#clip0_4_3527)">
<path d="M15.4719 13.0156C14.283 15.2345 12.4688 17.0123 10.1405 17.9326C9.23131 18.2941 8.0342 18.273 8.1535 16.9912C8.22755 16.1927 9.06676 15.4993 9.6756 15.1253C10.7123 14.4865 12.041 14.2764 13.1558 13.7804C13.8799 13.4568 13.2546 12.3684 12.5347 12.692C10.5436 13.5787 8.3633 13.7888 7.23201 15.9406C6.62729 17.0921 6.42983 18.6933 7.79149 19.3489C9.26833 20.0592 11.3005 18.9118 12.5264 18.1049C14.2295 16.987 15.5665 15.4615 16.5333 13.6502C16.92 12.9399 15.8545 12.3011 15.4719 13.0156Z" fill="#46A358"/>
<path d="M12.8967 12.4901C11.3993 12.6582 9.91418 12.6666 8.42911 12.3808C7.88609 12.2757 7.34719 12.1329 6.82062 11.9606C6.37633 11.8261 5.9485 11.6622 5.52478 11.4646C4.89538 10.6493 4.95708 10.1955 5.71813 10.0946C7.9478 8.33789 11.4322 10.1828 13.6207 11.036C14.3653 11.326 14.6862 10.1072 13.9498 9.82142C12.0451 9.07755 9.95532 7.95966 7.86141 8.19921C6.66019 8.33369 3.89162 8.86742 3.57074 10.4098C2.83026 13.982 11.1072 13.9568 12.8967 13.7551C13.6783 13.6626 13.6865 12.4018 12.8967 12.4901Z" fill="#46A358"/>
<path d="M14.353 9.84239C12.4812 8.32524 10.8192 5.96337 10.9097 3.40397C10.9509 2.26506 11.6584 1.78176 12.6828 2.29448C13.2464 2.57605 13.6372 3.2947 13.9457 3.83684C14.6615 5.10603 14.9618 6.55594 15.2251 7.98063C15.3732 8.77492 16.5621 8.43871 16.414 7.64442C16.019 5.51789 15.4555 3.30311 13.9169 1.71452C13.0078 0.777331 11.4939 -0.298541 10.4243 0.962246C7.92314 3.90828 11.1977 8.87999 13.4808 10.7333C14.0979 11.2335 14.9783 10.3467 14.353 9.84239Z" fill="#46A358"/>
<path d="M16.3852 7.99358C16.6567 5.96791 17.5206 2.11411 19.7996 1.4585C21.9182 0.853323 21.7084 4.33309 21.116 5.48461C20.5195 6.64454 19.3471 7.73302 18.4955 8.70382C17.969 9.3048 18.837 10.2 19.3676 9.59478C20.5894 8.19951 22.416 6.59831 22.6792 4.63568C22.8849 3.11433 22.7738 0.815499 21.1325 0.14308C19.635 -0.470503 18.1541 0.924767 17.3025 2.02165C16.0478 3.63546 15.4637 5.63591 15.1922 7.64896C15.0852 8.45166 16.2741 8.79628 16.3852 7.99358Z" fill="#46A358"/>
<path d="M19.454 9.75442C20.8897 8.52726 23.5555 7.67413 25.3079 8.77942C27.5787 10.2167 24.3618 11.0783 23.3004 11.1497C22.165 11.2295 21.0296 11.1581 19.9024 11.0236C19.1167 10.9312 19.1208 12.1919 19.9024 12.2844C21.7454 12.5029 24.2342 12.7845 25.9497 11.8515C27.0152 11.2716 27.7803 9.8679 27.1262 8.68696C26.394 7.36313 24.333 7.04373 22.996 7.08156C21.3381 7.13199 19.8448 7.7876 18.586 8.86347C17.9731 9.38459 18.8493 10.2756 19.454 9.75442Z" fill="#46A358"/>
<path d="M19.5857 12.2422C20.8568 12.7213 22.1198 13.4441 22.8438 14.6629C23.7488 16.1927 23.7694 19.0084 21.1366 18.4831C18.8205 18.0208 17.1462 15.5076 16.6731 13.3265C16.5004 12.5364 15.3115 12.8684 15.4843 13.6627C15.9039 15.6043 16.9529 17.319 18.5243 18.5083C19.7585 19.4455 21.9264 20.5634 23.3786 19.5001C24.8719 18.4074 24.8719 16.1464 24.1972 14.5915C23.3992 12.7591 21.7002 11.6959 19.923 11.0234C19.1661 10.7461 18.8452 11.9648 19.5857 12.2422Z" fill="#46A358"/>
<path d="M7.10449 15.7137C3.50082 17.9326 0.84332 20.4038 0.213912 24.8502C-0.473088 29.679 0.62529 34.7263 1.62905 39.4291C1.79772 40.2234 2.9866 39.8871 2.81793 39.0928C1.92936 34.9322 1.02021 30.6204 1.29584 26.3379C1.59614 21.6688 3.96567 19.1178 7.72155 16.8063C8.40444 16.3861 7.78737 15.2934 7.10449 15.7137Z" fill="#46A358"/>
<path d="M23.0083 14.2889C28.0477 14.6923 31.6143 18.8277 32.9678 23.564C34.4405 28.7207 33.6178 34.1505 32.8156 39.3449C32.6922 40.1392 33.881 40.4796 34.0045 39.6811C34.9424 33.5873 35.8844 27.1153 33.4614 21.24C31.6267 16.7894 27.8173 13.4147 23.0083 13.0281C22.2144 12.965 22.2185 14.2258 23.0083 14.2889Z" fill="#46A358"/>
<path d="M8.32628 18.3277C2.2996 22.8077 4.25365 32.936 5.47132 39.2315C5.62353 40.0258 6.81653 39.6896 6.6602 38.8953C6.02257 35.6004 5.43019 32.2678 5.49189 28.8973C5.5536 25.6192 6.15832 21.488 8.94746 19.4161C9.5851 18.9412 8.97215 17.8486 8.32628 18.3277Z" fill="#46A358"/>
<path d="M15.0934 14.251C12.8514 17.777 11.4034 21.7191 10.8768 25.8965C10.6012 28.0861 10.5806 30.3051 10.8357 32.4988C11.1113 34.8943 11.8641 37.1974 12.1438 39.5929C12.2343 40.3872 13.4726 40.3998 13.378 39.5929C12.8926 35.4112 11.642 31.5616 11.9711 27.2834C12.3125 22.8412 13.7935 18.6134 16.163 14.8856C16.5908 14.2048 15.5254 13.5744 15.0934 14.251Z" fill="#46A358"/>
<path d="M18.1088 18.1469C19.9477 21.2484 20.3344 24.7576 20.6553 28.3004C20.9885 31.9861 21.26 35.676 21.4904 39.3701C21.5397 40.1771 22.7739 40.1813 22.7245 39.3701C22.4653 35.1885 22.1732 31.0069 21.7536 26.8379C21.4245 23.5641 20.8692 20.3575 19.1743 17.5081C18.7629 16.8189 17.6933 17.4493 18.1088 18.1469Z" fill="#46A358"/>
<path d="M23.7241 18.7353C28.3192 24.64 28.4714 32.1795 28.3069 39.3744C28.2904 40.1855 29.5246 40.1855 29.541 39.3744C29.7138 31.7845 29.4176 24.0433 24.5963 17.8444C24.1026 17.2098 23.2346 18.1092 23.7241 18.7353Z" fill="#46A358"/>
<path d="M15.9532 20.2735C15.8833 20.555 15.8175 20.8324 15.7475 21.114C15.6529 21.509 16.2453 21.6771 16.344 21.2821C16.414 21.0005 16.4798 20.7231 16.5497 20.4416C16.6443 20.0507 16.052 19.8826 15.9532 20.2735Z" fill="#46A358"/>
<path d="M17.2861 22.4629C17.2861 22.7781 17.2861 23.0933 17.2861 23.4085C17.2861 23.8161 17.9031 23.8161 17.9031 23.4085C17.9031 23.0933 17.9031 22.7781 17.9031 22.4629C17.9031 22.0553 17.2861 22.0553 17.2861 22.4629Z" fill="#46A358"/>
<path d="M14.3077 24.4593C14.2748 24.9132 14.2378 25.3713 14.2049 25.8251C14.1761 26.2286 14.7931 26.2286 14.8219 25.8251C14.8548 25.3713 14.8919 24.9132 14.9248 24.4593C14.9536 24.0558 14.3365 24.0558 14.3077 24.4593Z" fill="#46A358"/>
<path d="M18.3145 26.6655C18.3145 27.0858 18.3145 27.5061 18.3145 27.9263C18.3145 28.334 18.9316 28.334 18.9316 27.9263C18.9316 27.5061 18.9316 27.0858 18.9316 26.6655C18.9316 26.2579 18.3145 26.2579 18.3145 26.6655Z" fill="#46A358"/>
<path d="M15.9491 28.977C15.9491 29.4309 15.9491 29.889 15.9491 30.3429C15.9491 30.7505 16.5662 30.7505 16.5662 30.3429C16.5662 29.889 16.5662 29.4309 16.5662 28.977C16.5662 28.5694 15.9491 28.5694 15.9491 28.977Z" fill="#46A358"/>
<path d="M14.6121 33.5999C14.6121 34.2303 14.6121 34.8607 14.6121 35.491C14.6121 35.8987 15.2292 35.8987 15.2292 35.491C15.2292 34.8607 15.2292 34.2303 15.2292 33.5999C15.2292 33.1922 14.6121 33.1922 14.6121 33.5999Z" fill="#46A358"/>
<path d="M12.7815 29.4771C12.8514 29.8974 12.9255 30.3177 12.9954 30.7379C13.0612 31.1372 13.6577 30.9691 13.5919 30.5698C13.522 30.1496 13.4479 29.7293 13.378 29.309C13.3081 28.914 12.7116 29.0821 12.7815 29.4771Z" fill="#46A358"/>
<path d="M17.5 35.7013C17.5329 36.1216 17.5699 36.5418 17.6028 36.9621C17.6358 37.3655 18.2528 37.3655 18.2199 36.9621C18.187 36.5418 18.15 36.1216 18.1171 35.7013C18.0842 35.2978 17.463 35.2936 17.5 35.7013Z" fill="#46A358"/>
<path d="M19.3471 30.9733C19.38 31.3936 19.417 31.8138 19.4499 32.2341C19.4828 32.6333 20.0999 32.6375 20.067 32.2341C20.0341 31.8138 19.9971 31.3936 19.9641 30.9733C19.9312 30.5698 19.3142 30.5656 19.3471 30.9733Z" fill="#46A358"/>
<path d="M26.431 16.903C26.9082 17.3275 27.3854 17.752 27.8626 18.1722C28.1629 18.437 28.5989 17.9915 28.2986 17.7267C27.8214 17.3023 27.3442 16.8778 26.867 16.4575C26.5709 16.1928 26.1307 16.6341 26.431 16.903Z" fill="#46A358"/>
<path d="M26.6902 20.4121C26.9576 20.9038 27.2291 21.3997 27.4965 21.8914C27.6898 22.2444 28.2246 21.9292 28.0313 21.572C27.7639 21.0803 27.4924 20.5844 27.225 20.0927C27.0275 19.7397 26.4968 20.0591 26.6902 20.4121Z" fill="#46A358"/>
<path d="M29.1625 20.618C29.467 21.0424 29.7714 21.4669 30.0758 21.8872C30.3062 22.2108 30.8451 21.8956 30.6106 21.5678C30.3062 21.1433 30.0017 20.7188 29.6973 20.2986C29.4628 19.9792 28.928 20.2902 29.1625 20.618Z" fill="#46A358"/>
<path d="M30.6846 26.1151C30.7875 26.8506 30.8944 27.586 30.9973 28.3215C31.0549 28.7207 31.6473 28.5526 31.5938 28.1534C31.4909 27.4179 31.384 26.6825 31.2811 25.947C31.2194 25.5477 30.627 25.7201 30.6846 26.1151Z" fill="#46A358"/>
<path d="M28.6113 24.2281C28.7141 24.5769 28.817 24.9299 28.9198 25.2788C29.035 25.6654 29.6274 25.5015 29.5163 25.1106C29.4135 24.7618 29.3106 24.4088 29.2078 24.06C29.0926 23.6734 28.4961 23.8373 28.6113 24.2281Z" fill="#46A358"/>
<path d="M31.8818 32.129C31.927 32.6291 31.9188 33.1292 31.8406 33.6251C31.7789 34.0201 32.3713 34.1924 32.4371 33.7932C32.5235 33.2385 32.5523 32.6879 32.5029 32.129C32.4618 31.7297 31.8447 31.7255 31.8818 32.129Z" fill="#46A358"/>
<path d="M30.4501 34.1252C30.4501 34.5118 30.4501 34.8942 30.4501 35.2809C30.4501 35.6885 31.0672 35.6885 31.0672 35.2809C31.0672 34.8942 31.0672 34.5118 31.0672 34.1252C31.0672 33.7175 30.4501 33.7175 30.4501 34.1252Z" fill="#46A358"/>
<path d="M31.0878 23.5936C31.2565 24.0139 31.4293 24.4342 31.5979 24.8544C31.6637 25.0141 31.8036 25.1234 31.9764 25.073C32.1204 25.0351 32.2561 24.8418 32.1903 24.6863C32.0216 24.2661 31.8489 23.8458 31.6802 23.4255C31.6144 23.2658 31.4745 23.1566 31.3017 23.207C31.1577 23.2448 31.0261 23.4381 31.0878 23.5936Z" fill="#46A358"/>
<path d="M29.9359 30.8682C29.9359 31.1119 29.9359 31.3599 29.9359 31.6036C29.9359 32.0113 30.553 32.0113 30.553 31.6036C30.553 31.3599 30.553 31.1119 30.553 30.8682C30.553 30.4605 29.9359 30.4605 29.9359 30.8682Z" fill="#46A358"/>
<path d="M31.1701 37.9076C31.1536 38.206 31.0837 38.4918 30.9767 38.7692C30.915 38.9289 31.0467 39.1138 31.1906 39.1558C31.3675 39.2062 31.5074 39.0928 31.5691 38.9373C31.7007 38.6053 31.7666 38.2648 31.7871 37.9076C31.8118 37.5 31.1948 37.5042 31.1701 37.9076Z" fill="#46A358"/>
<path d="M5.2903 19.4623C5.0805 19.7733 4.87069 20.0843 4.65678 20.3953C4.43052 20.7315 4.96531 21.0467 5.19157 20.7147C5.40137 20.4037 5.61117 20.0927 5.82509 19.7817C6.04723 19.4455 5.51244 19.1303 5.2903 19.4623Z" fill="#46A358"/>
<path d="M3.52962 24.0599C3.45146 24.4423 3.37741 24.8248 3.29925 25.2114C3.22109 25.6065 3.81347 25.7788 3.89574 25.3795C3.97391 24.9971 4.04795 24.6146 4.12612 24.228C4.20428 23.8329 3.60778 23.6648 3.52962 24.0599Z" fill="#46A358"/>
<path d="M3.33214 21.7695C3.00715 22.2108 2.76444 22.6983 2.59989 23.2236C2.47647 23.6102 3.07297 23.7741 3.19639 23.3917C3.3486 22.9168 3.57485 22.4881 3.86693 22.0889C4.10553 21.7611 3.56663 21.4501 3.33214 21.7695Z" fill="#46A358"/>
<path d="M2.07744 25.9511C2.0034 26.4764 1.92523 26.9975 1.85119 27.5229C1.79359 27.9179 2.39009 28.0902 2.44768 27.691C2.52173 27.1656 2.59989 26.6445 2.67394 26.1192C2.73153 25.7199 2.13504 25.5476 2.07744 25.9511Z" fill="#46A358"/>
<path d="M2.69453 28.977C2.64105 29.5023 2.67396 30.0193 2.77269 30.5362C2.84674 30.9354 3.44323 30.7673 3.36919 30.3681C3.2828 29.9058 3.26634 29.4435 3.31571 28.977C3.34862 28.5736 2.73155 28.5778 2.69453 28.977Z" fill="#46A358"/>
<path d="M3.20052 32.9696C3.23343 33.2848 3.27046 33.6 3.30337 33.9152C3.31982 34.0833 3.43089 34.2304 3.6119 34.2304C3.76411 34.2304 3.941 34.0875 3.92043 33.9152C3.88752 33.6 3.8505 33.2848 3.81759 32.9696C3.80113 32.8015 3.69006 32.6544 3.50906 32.6544C3.35685 32.6544 3.18407 32.7973 3.20052 32.9696Z" fill="#46A358"/>
<path d="M2.20085 35.3399C2.43945 35.7391 2.61222 36.1594 2.71918 36.6175C2.8138 37.0125 3.40618 36.8444 3.31568 36.4494C3.19638 35.9451 2.99892 35.466 2.73564 35.0205C2.52583 34.6759 1.99516 34.9953 2.20085 35.3399Z" fill="#46A358"/>
<path d="M3.51727 37.9917C3.5872 38.1682 3.65302 38.3405 3.72296 38.5171C3.78466 38.6725 3.92864 38.786 4.10142 38.7356C4.24952 38.6936 4.38116 38.5086 4.31534 38.3489C4.2454 38.1724 4.17958 38.0001 4.10965 37.8236C4.04794 37.6681 3.90396 37.5547 3.73118 37.6051C3.5872 37.6429 3.45556 37.832 3.51727 37.9917Z" fill="#46A358"/>
</g>
<defs>
<clipPath id="clip0_4_3527">
<rect width="35" height="40.1939" fill="white"/>
</clipPath>
</defs>
</svg>
