<svg width="68" height="51" viewBox="0 0 68 51" fill="none" xmlns="http://www.w3.org/2000/svg">
<g clip-path="url(#clip0_4_3497)">
<path d="M7.24882 2.86154C24.0215 1.0551 40.9382 3.82806 57.6698 1.32944C58.4514 1.21126 58.1182 -0.00850169 57.3407 0.109676C40.7284 2.58719 23.9063 -0.198431 7.24882 1.59534C6.46716 1.67976 6.45893 2.94595 7.24882 2.86154Z" fill="#727272"/>
<path d="M7.08426 1.62075C5.4469 2.14411 5.6526 4.33884 6.52065 5.50374C7.94409 7.41147 11.1407 7.45368 13.2264 7.25109C14.0122 7.17512 14.0163 5.90892 13.2264 5.9849C11.8771 6.11574 10.4783 6.10307 9.16594 5.70633C8.48302 5.49952 7.76307 5.2083 7.37224 4.54988C7.17066 4.208 6.78394 3.04311 7.41338 2.84474C8.17036 2.59994 7.84535 1.37595 7.08426 1.62075Z" fill="#727272"/>
<path d="M54.7818 1.72622C55.6498 1.67135 56.4891 1.51941 57.353 1.40123C58.723 1.2113 59.4265 1.59116 59.6651 3.06839C59.8625 4.2966 59.1097 4.65535 58.0483 5.00144C57.5464 5.16605 57.0198 5.26734 56.5014 5.37286C55.115 5.65142 53.7245 5.7907 52.3134 5.84135C51.5235 5.8709 51.5194 7.13709 52.3134 7.10754C54.7201 7.01891 61.4793 6.92606 61.216 3.02196C61.1502 2.04699 60.2328 0.700607 59.373 0.26166C58.0894 -0.396761 56.09 0.375617 54.7777 0.46003C53.9919 0.510678 53.9878 1.77687 54.7818 1.72622Z" fill="#727272"/>
<path d="M9.05488 6.98085C8.8862 9.66096 5.92414 11.1762 4.3526 13.0164C3.1184 14.4641 2.1475 16.1312 1.44401 17.9081C-0.0699346 21.7151 -0.357913 25.9822 0.411401 29.996C1.99528 38.2305 8.05929 45.0257 15.6331 47.9422C16.3778 48.2292 16.6987 47.0052 15.9623 46.7224C8.09632 43.692 1.98294 36.0991 1.30002 27.3919C0.975017 23.2557 1.82661 18.9506 4.07696 15.4686C5.94471 12.5816 10.0546 10.733 10.2891 6.98085C10.3384 6.17049 9.10425 6.17049 9.05488 6.98085Z" fill="#727272"/>
<path d="M55.8226 6.44068C55.8226 9.77077 58.1799 11.86 60.5784 13.7213C62.6395 15.3167 64.2357 16.8699 65.2519 19.3727C66.1364 21.5464 66.6259 23.893 66.737 26.2439C67.1402 34.892 62.2445 42.9197 54.7201 46.6972C54.0084 47.0559 54.6296 48.1491 55.3413 47.7903C62.3309 44.283 67.2595 37.1543 67.9177 29.1688C68.2509 25.1297 67.568 20.6811 65.5686 17.14C63.3677 13.2359 57.0568 11.4464 57.0527 6.44068C57.0568 5.6261 55.8226 5.6261 55.8226 6.44068Z" fill="#727272"/>
<path d="M15.267 47.0137C14.4688 48.8328 15.9005 50.4029 17.6777 50.4873C19.6072 50.5843 21.6436 50.1243 23.5772 50.0399C25.8193 49.9386 28.0614 49.9344 30.3036 49.9681C38.6714 50.099 47.0351 50.7532 55.3659 49.5883C55.6498 49.5503 55.7938 49.2295 55.8185 48.9763C55.8843 48.2672 55.8267 47.7438 55.6251 47.077C55.3906 46.3004 54.2017 46.6338 54.4362 47.4146C54.646 47.9253 54.6953 48.4487 54.5843 48.9763C54.7365 48.7737 54.8846 48.5711 55.0368 48.3643C48.5408 49.2717 41.9873 49.0438 35.4543 48.8328C32.2865 48.7315 29.1146 48.6386 25.9468 48.6935C24.4987 48.7188 23.0506 48.7779 21.6025 48.8792C20.8126 48.9341 20.0268 49.01 19.2411 49.0902C18.661 49.1493 15.4439 49.66 16.3284 47.6425C16.6534 46.9124 15.592 46.2708 15.267 47.0137Z" fill="#727272"/>
<path d="M7.08016 13.6284C2.05287 19.9721 1.66205 28.827 6.17508 35.58C6.39724 35.9134 6.93205 35.5969 6.7099 35.2592C2.36142 28.7552 2.66174 20.2042 7.52035 14.0716C7.76308 13.7635 7.33111 13.3119 7.08016 13.6284Z" fill="#727272"/>
<path d="M7.41338 37.9308C7.81655 38.5302 8.27731 39.0831 8.79156 39.5853C9.07954 39.8639 9.51562 39.4207 9.22764 39.1379C8.75042 38.6737 8.32257 38.1672 7.94408 37.6143C7.72193 37.2809 7.18711 37.5932 7.41338 37.9308Z" fill="#727272"/>
<path d="M10.865 41.5733C11.2641 41.5733 11.2641 40.9402 10.865 40.9402C10.466 40.9402 10.466 41.5733 10.865 41.5733Z" fill="#727272"/>
<path d="M54.6296 6.47449C54.3128 7.69004 54.0413 8.91402 54.5062 10.1296C54.9381 11.2565 55.8144 12.2737 56.559 13.2064C58.3445 15.4349 61.9977 17.6845 62.1705 20.7909C62.1911 21.1961 62.8082 21.2003 62.7876 20.7909C62.6601 18.4653 60.9898 16.9755 59.4512 15.4645C58.4597 14.4895 57.5258 13.4554 56.6701 12.3496C56.0941 11.6026 55.4441 10.8133 55.1109 9.91432C54.7036 8.82117 54.9381 7.74491 55.222 6.64754C55.3248 6.2508 54.7283 6.08197 54.6296 6.47449Z" fill="#727272"/>
<path d="M62.4379 22.2597C62.5243 23.0701 62.6107 23.8805 62.6971 24.6908C62.7382 25.0918 63.3594 25.096 63.3141 24.6908C63.2278 23.8805 63.1414 23.0701 63.055 22.2597C63.0138 21.8588 62.3967 21.8546 62.4379 22.2597Z" fill="#727272"/>
<path d="M62.4955 26.3579C62.5408 26.5943 62.5037 26.818 62.4173 27.0375C62.3556 27.1979 62.4873 27.3836 62.6313 27.4258C62.8082 27.4764 62.948 27.3625 63.0097 27.2063C63.1373 26.8771 63.1537 26.5352 63.0879 26.1891C63.018 25.7924 62.4215 25.9612 62.4955 26.3579Z" fill="#727272"/>
<path d="M35.7423 21.7278C37.2151 18.8578 39.9879 16.9796 43.2091 17.1442C47.0434 17.3383 51.0751 20.7613 48.3887 24.8047C46.813 27.1724 43.9826 28.7045 41.8968 30.5701C39.5806 32.6424 37.4619 34.9258 35.5078 37.3653C35.0059 37.9899 35.8739 38.8889 36.3799 38.2601C39.3585 34.5417 42.7278 31.3973 46.4304 28.4597C48.9029 26.4929 51.6387 23.5089 50.1371 20.0522C48.8947 17.1906 45.4636 15.7851 42.5715 15.8696C39.1651 15.9708 36.2442 18.0305 34.6726 21.0863C34.3065 21.808 35.372 22.4495 35.7423 21.7278Z" fill="#727272"/>
<path d="M35.4502 20.7445C32.8131 17.7014 29.5219 14.5655 25.2516 14.7934C22.0838 14.9622 19.3563 17.427 18.8996 20.6727C18.336 24.6275 21.2158 28.0968 24.0215 30.3886C27.469 33.2038 32.6691 34.1788 35.2486 37.9942C35.697 38.6611 36.7666 38.028 36.3141 37.3569C34.7055 34.9765 32.3647 33.7525 29.8798 32.5201C26.7203 30.9542 23.606 29.0169 21.5737 25.995C19.3069 22.6311 19.6813 17.4861 24.075 16.2537C28.3741 15.0508 31.9944 18.6637 34.5739 21.6392C35.1046 22.2512 35.9767 21.3522 35.4502 20.7445Z" fill="#727272"/>
</g>
<defs>
<clipPath id="clip0_4_3497">
<rect width="68" height="50.5" fill="white"/>
</clipPath>
</defs>
</svg>
