<svg width="83" height="42" viewBox="0 0 83 42" fill="none" xmlns="http://www.w3.org/2000/svg">
<g clip-path="url(#clip0_4_3832)">
<path d="M30.3859 2.71036C28.0446 8.94083 26.3971 15.4518 25.8568 22.138C25.3966 27.8531 25.5367 34.0169 28.5582 39.0027C28.9051 39.5742 29.7589 39.0273 29.412 38.4522C26.3804 33.4524 26.3871 27.1799 26.914 21.4684C27.501 15.1047 29.1285 8.90226 31.3564 2.96982C31.5898 2.34222 30.6193 2.08977 30.3859 2.71036Z" fill="#727272"/>
<path d="M60.7884 1.74607C66.1145 5.95348 66.1212 13.667 66.6948 19.9992C66.985 23.1933 67.3852 26.3979 67.5253 29.6061C67.6553 32.5372 67.4219 35.6507 65.2141 37.7264C64.7338 38.1787 65.4575 38.9044 65.9344 38.4557C67.8788 36.6289 68.4791 34.0133 68.5458 31.3592C68.6425 27.5795 68.0322 23.7368 67.692 19.9817C67.095 13.383 67.0217 5.36795 61.4788 0.988741C60.9718 0.585532 60.2748 1.33936 60.7884 1.74607Z" fill="#727272"/>
<path d="M28.7583 39.213C31.5832 40.2824 34.4713 40.5489 37.4429 40.8118C40.7313 41.1028 44.0497 41.5411 47.3547 41.4184C50.7098 41.2957 54.0749 40.7943 57.41 40.4156C60.3282 40.0825 63.223 39.6618 65.9444 38.4417C66.5281 38.1787 66.2513 37.1654 65.6576 37.4319C62.8361 38.6976 59.8412 39.0903 56.8163 39.4269C53.668 39.7775 50.4997 40.2508 47.3347 40.3665C44.2331 40.4822 41.1248 40.086 38.0365 39.8161C34.9583 39.5426 31.9367 39.3042 29.0051 38.1962C28.3982 37.9613 28.158 38.9851 28.7583 39.213Z" fill="#727272"/>
<path d="M30.626 3.29941C32.9539 4.29867 35.3318 5.18222 37.8431 5.49427C40.4545 5.81684 43.1158 5.35402 45.7439 5.42415C47.2013 5.46271 48.512 5.66958 49.9828 5.44869C51.2501 5.25585 52.5174 4.98938 53.7481 4.62123C56.2994 3.85689 58.7707 2.79101 61.2753 1.8724C61.879 1.65151 61.5988 0.641734 60.9885 0.862623C56.0859 2.66129 51.4902 4.76148 46.1975 4.40035C43.9963 4.24958 41.8052 4.58968 39.6107 4.56864C36.6558 4.53709 33.8143 3.54133 31.1062 2.38079C30.5226 2.12835 30.029 3.04346 30.626 3.29941Z" fill="#727272"/>
<path d="M0.663676 6.46542C6.2666 7.39105 11.4793 10.1785 15.3847 14.5226C19.1633 18.7265 21.2878 24.2662 25.4099 28.1686C25.8868 28.6209 26.5839 27.8636 26.1036 27.4113C21.7347 23.274 19.5502 17.289 15.348 12.9869C11.4126 8.95831 6.3233 6.3392 0.910471 5.44513C0.276807 5.33994 0.0266764 6.36024 0.663676 6.46542Z" fill="#727272"/>
<path d="M1.53747 4.58261C6.62346 3.36246 12.0296 4.08824 16.5987 6.77747C20.2439 8.92324 23.2355 12.3137 27.5877 12.7765C28.2281 12.8431 28.2014 11.7913 27.5677 11.7247C22.6852 11.2058 19.1633 6.58112 14.761 4.68078C10.4688 2.82952 5.76301 2.49293 1.25399 3.57283C0.623656 3.72359 0.910473 4.73337 1.53747 4.58261Z" fill="#727272"/>
<path d="M0.723709 3.87786C0.340175 4.43183 0.0933795 5.08047 0.00666752 5.75716C-0.0300183 6.04116 0.0867093 6.31815 0.370191 6.39528C0.606981 6.4619 0.940489 6.29711 0.977174 6.01311C1.05388 5.41005 1.25732 4.88062 1.5975 4.38625C1.75758 4.15484 1.61751 3.80072 1.40406 3.67099C1.14726 3.52023 0.880457 3.64995 0.723709 3.87786Z" fill="#727272"/>
<path d="M64.8105 4.83841C66.8783 0.676586 73.4483 0.140142 77.1569 2.0475C81.1757 4.11614 83.03 9.12645 81.3825 13.5092C79.9484 17.3274 76.2631 19.1962 73.2316 21.398C71.9542 22.3272 70.5335 23.372 69.6497 24.7429C68.7259 26.1769 68.8459 28.0002 67.9321 29.4307C67.572 29.9952 68.4491 30.5001 68.8059 29.9426C69.3829 29.0415 69.5496 28.0808 69.8064 27.05C70.17 25.6089 70.897 24.6833 71.9409 23.7402C73.7385 22.1168 75.8463 20.9422 77.7606 19.4872C81.149 16.9101 83.5269 13.2497 82.8966 8.66364C82.3196 4.48779 79.1246 1.03422 75.1792 0.273377C71.2038 -0.494474 65.9644 0.245328 63.9334 4.33001C63.6366 4.92606 64.5104 5.43796 64.8105 4.83841Z" fill="#727272"/>
<path d="M65.8244 7.48573C67.2084 4.58262 70.3601 3.8323 73.2216 4.06371C75.1292 4.21798 76.3065 5.00687 77.3037 6.72839C78.4076 8.62874 78.3542 10.2381 77.7306 12.2646C76.7501 15.4412 74.9825 16.9138 72.2644 18.4039C70.4835 19.3787 67.7654 20.6549 67.055 22.8112C66.8449 23.4528 67.8154 23.7053 68.0255 23.0706C68.6725 21.1072 71.8475 19.8309 73.4817 18.9228C74.8991 18.1375 76.2265 17.2714 77.1836 15.8865C78.6978 13.6987 79.9417 10.1259 78.8445 7.53481C77.5038 4.36524 75.4527 2.95926 72.1777 2.98381C69.2628 3.00484 66.3246 4.09877 64.9539 6.97383C64.6638 7.57689 65.5376 8.08879 65.8244 7.48573Z" fill="#727272"/>
<path d="M47.308 15.0941C44.3665 15.5534 41.8819 17.8535 41.585 21.0686C41.3016 24.133 43.2693 28.123 46.611 27.8881C49.6593 27.6742 52.3673 24.5678 52.6475 21.4613C52.9576 18.0428 50.5197 15.0626 47.208 15.2133C46.5643 15.2414 46.5843 16.2932 47.228 16.2652C50.1328 16.1319 52.1339 18.9228 51.5903 21.861C51.15 24.2382 48.9689 26.6364 46.591 26.8398C43.6695 27.0887 42.1787 23.2004 42.6423 20.6759C43.0858 18.2567 45.0569 16.5036 47.328 16.1495C47.955 16.0478 47.945 14.9924 47.308 15.0941Z" fill="#727272"/>
<path d="M47.8817 15.5534C47.7049 13.3235 51.0366 9.93305 52.7042 12.5136C53.2211 13.313 53.7214 14.733 53.5079 15.7182C53.2778 16.7736 52.294 17.5625 51.5402 18.2111C51.0433 18.6389 51.7704 19.3646 52.2606 18.9404C53.4479 17.9201 54.6685 16.6964 54.5552 14.9469C54.4618 13.5164 53.708 11.63 52.5208 10.8447C49.9861 9.1652 46.6777 13.0115 46.8811 15.578C46.9345 16.2477 47.935 16.2301 47.8817 15.5534Z" fill="#727272"/>
<path d="M52.5274 19.1753C53.7814 18.3935 57.0264 18.6003 56.6896 20.8583C56.3694 23.0111 53.718 23.0987 52.1472 23.1198C51.5035 23.1268 51.5236 24.1786 52.1672 24.1716C54.3717 24.1436 58.2271 23.4143 57.6768 20.136C57.2432 17.5625 53.7881 17.1628 52.0038 18.2778C51.4502 18.6249 51.9705 19.5224 52.5274 19.1753Z" fill="#727272"/>
<path d="M51.5202 24.3644C53.2745 25.1778 55.2488 27.5935 53.5813 29.543C51.6303 31.822 48.8088 29.5675 48.0884 27.3691C47.8783 26.731 46.9178 27.0255 47.1279 27.6707C48.0618 30.5107 51.4268 32.965 54.0215 30.5563C56.5429 28.2176 54.5385 24.6203 52.0072 23.4422C51.4235 23.1723 50.9333 24.0909 51.5202 24.3644Z" fill="#727272"/>
<path d="M46.6477 27.6321C46.7377 29.3992 46.2675 32.0289 44.0063 31.7133C42.9791 31.5695 42.1887 30.5983 42.2354 29.4974C42.2754 28.5087 42.9391 27.3551 43.3026 26.4505C43.5494 25.8335 42.6789 25.3145 42.4288 25.9386C41.8985 27.264 40.9781 28.8102 41.3182 30.3073C41.595 31.5205 42.5055 32.4847 43.6728 32.7266C46.651 33.3472 47.7749 30.118 47.6482 27.6076C47.6149 26.9344 46.6143 26.9519 46.6477 27.6321Z" fill="#727272"/>
<path d="M43.1659 25.1428C41.3016 25.9527 38.4234 25.7458 37.773 23.288C37.4896 22.2081 37.8064 20.9319 38.7702 20.3463C39.7074 19.7783 40.918 19.9291 41.9386 20.0588C42.5689 20.1395 42.8223 19.1192 42.1853 19.0385C40.7713 18.8597 39.1671 18.702 37.9498 19.6556C36.9393 20.448 36.5291 21.8365 36.7225 23.1162C37.2228 26.4225 40.9013 27.2535 43.4493 26.1491C44.043 25.8966 43.7628 24.8833 43.1659 25.1428Z" fill="#727272"/>
<path d="M42.5455 19.1577C40.8613 18.2111 39.9809 14.7329 41.4583 13.2288C43.3993 11.2548 45.7839 14.0527 46.9578 15.5674C47.3647 16.0898 48.0517 15.329 47.6515 14.8101C46.1174 12.8326 42.799 9.80677 40.5312 12.6573C38.8636 14.7575 39.8608 18.8422 42.0586 20.0798C42.6256 20.3989 43.1158 19.4803 42.5455 19.1577Z" fill="#727272"/>
<path d="M44.153 26.8889C43.3626 27.6883 42.849 29.8516 44.063 30.5072C45.5171 31.2961 46.1608 28.6139 46.3542 27.6462C46.4409 27.2044 45.7939 27.0326 45.7072 27.4744C45.6205 27.9127 45.5104 28.3439 45.357 28.7647C45.2803 28.9715 45.1969 29.1784 45.0969 29.3747C44.9435 29.6798 44.8534 29.8761 44.4999 29.834C43.5461 29.7113 44.1997 27.8145 44.6366 27.3762C44.9435 27.0607 44.4632 26.5768 44.153 26.8889Z" fill="#727272"/>
<path d="M48.452 26.9379C48.2819 27.9477 49.3691 28.7401 50.1462 29.1012C50.9333 29.4658 52.0305 29.5886 52.7675 29.017C53.4712 28.4701 53.3612 27.4778 53.0577 26.7205C52.6441 25.6897 51.7937 24.9955 50.8099 24.6308C50.403 24.4801 50.2429 25.1638 50.6464 25.311C51.2401 25.5319 51.7737 25.9036 52.1506 26.4435C52.2806 26.6328 52.3807 26.8327 52.4641 27.0501C52.6575 27.562 52.6875 27.7934 52.344 28.2387C52.0505 28.6173 51.8971 28.705 51.4502 28.7085C51.17 28.7085 50.8799 28.6489 50.6164 28.5507C50.2129 28.4 48.9956 27.7338 49.099 27.1167C49.1723 26.6679 48.5287 26.4926 48.452 26.9379Z" fill="#727272"/>
<path d="M52.3207 22.4011C53.1578 22.622 53.9915 22.2433 54.6952 21.777C55.2088 21.4369 55.8858 20.8163 55.8258 20.0975C55.7758 19.498 55.2088 19.214 54.7019 19.1508C53.8281 19.0386 52.971 19.4348 52.2606 19.9327C51.9038 20.1817 52.2506 20.7847 52.6075 20.5323C52.9777 20.2693 53.3712 20.0379 53.8081 19.9222C54.2116 19.8135 55.3856 19.6382 55.0287 20.5182C54.7152 21.3001 53.1944 21.9067 52.4841 21.7209C52.0672 21.6122 51.9038 22.2924 52.3207 22.4011Z" fill="#727272"/>
<path d="M49.209 15.855C49.1557 15.3221 49.2624 14.7927 49.6292 14.4C49.896 14.109 50.5431 13.7233 50.9233 13.9477C51.2601 14.1475 51.2368 14.989 51.2368 15.3782C51.2334 15.9357 51.12 16.4651 50.9433 16.9875C50.7999 17.4118 51.4469 17.5801 51.5903 17.1593C51.8771 16.3108 51.9771 15.4203 51.8404 14.5262C51.747 13.9126 51.647 13.3025 50.99 13.2114C49.5359 13.0045 48.4053 14.4245 48.5487 15.8726C48.5854 16.3143 49.2524 16.3038 49.209 15.855Z" fill="#727272"/>
<path d="M43.0158 18.2006C42.4989 17.5169 42.0553 16.2757 42.2287 15.3956C42.3321 14.8627 42.4522 14.7084 42.9791 14.6523C43.506 14.5962 43.6361 14.761 44.0163 15.0836C44.4032 15.4097 44.78 15.7462 45.1636 16.0758C45.4937 16.3598 45.9573 15.8584 45.6238 15.5709C44.6833 14.7575 43.1725 12.8817 41.9752 14.3087C41.0481 15.4167 41.6718 17.5484 42.4455 18.5687C42.709 18.9158 43.2826 18.5547 43.0158 18.2006Z" fill="#727272"/>
<path d="M41.8185 20.9318C40.5178 20.3849 38.8203 21.6015 39.0204 23.1372C39.2071 24.5923 41.4383 25.1322 42.4422 24.3118C42.7757 24.0383 42.4322 23.4353 42.0953 23.7122C41.5484 24.161 40.1876 24.0418 39.7874 23.3721C39.2005 22.4009 40.6312 21.1773 41.4983 21.5454C41.8885 21.7102 42.2154 21.1001 41.8185 20.9318Z" fill="#727272"/>
</g>
<defs>
<clipPath id="clip0_4_3832">
<rect width="83" height="41.4359" fill="white"/>
</clipPath>
</defs>
</svg>
