<svg width="44" height="51" viewBox="0 0 44 51" fill="none" xmlns="http://www.w3.org/2000/svg">
<g clip-path="url(#clip0_4_3613)">
<path d="M20.3006 45.6075C20.3204 46.1091 20.4594 46.5836 20.7176 47.0106C20.9393 47.3834 21.5052 47.0275 21.2835 46.6581C21.0882 46.3294 20.979 45.9803 20.9658 45.5973C20.9459 45.1601 20.284 45.1737 20.3006 45.6075Z" fill="#46A358"/>
<path d="M28.8093 45.5634C28.7762 45.7532 28.7398 45.9396 28.7067 46.1294C28.6736 46.309 28.7663 46.4954 28.945 46.5428C29.1105 46.5869 29.3157 46.4785 29.3488 46.2988C29.3819 46.109 29.4183 45.9226 29.4514 45.7328C29.4845 45.5532 29.3918 45.3668 29.2131 45.3194C29.0476 45.2753 28.8424 45.3838 28.8093 45.5634Z" fill="#46A358"/>
<path d="M33.3401 46.2378C33.767 46.2277 33.7537 45.5499 33.3268 45.56C32.8999 45.5702 32.9131 46.248 33.3401 46.2378Z" fill="#46A358"/>
<path d="M8.48229 47.4376C8.90921 47.4274 8.89598 46.7496 8.46905 46.7598C8.04212 46.7699 8.05536 47.4478 8.48229 47.4376Z" fill="#46A358"/>
<path d="M20.5885 4.54481C18.0335 12.2619 16.6402 20.3449 16.488 28.4958C16.4119 32.5932 16.6469 36.6941 17.1929 40.7543C17.4444 42.6251 17.7622 44.4891 18.1461 46.3362C18.4472 47.7799 18.6028 49.4304 19.6486 50.5319C20.0954 51.003 20.7804 50.2675 20.337 49.7998C19.2084 48.6103 19.0926 46.0955 18.8013 44.5399C18.434 42.5742 18.1428 40.5916 17.9276 38.5988C17.5206 34.8301 17.3849 31.0342 17.5139 27.2452C17.7754 19.5993 19.1555 12.0382 21.5516 4.79561C21.7567 4.1754 20.7904 3.92799 20.5885 4.54481Z" fill="#46A358"/>
<path d="M24.4408 4.68372C25.7778 12.394 25.8109 20.2737 26.079 28.0789C26.2047 31.7459 26.4199 35.4231 26.347 39.0935C26.2709 42.9029 25.5461 46.4852 24.5698 50.1455C24.401 50.7793 25.3641 51.0267 25.5329 50.3963C26.4496 46.9699 27.1777 43.5875 27.3167 40.0222C27.4723 36.0399 27.2108 32.0374 27.0751 28.0619C26.8038 20.1619 26.7475 12.2008 25.3939 4.39564C25.2814 3.75171 24.3282 4.04318 24.4408 4.68372Z" fill="#46A358"/>
<path d="M31.629 17.9319C32.0824 28.4822 32.4928 39.1614 29.9776 49.4948C29.8221 50.132 30.7851 50.3794 30.9407 49.7456C33.4757 39.324 33.0819 28.55 32.6219 17.9115C32.5921 17.2574 31.5993 17.2744 31.629 17.9319Z" fill="#46A358"/>
<path d="M28.8226 18.0877C27.416 19.7721 26.4761 21.731 26.0624 23.9102C25.94 24.5508 26.903 24.8049 27.0255 24.161C27.4061 22.1479 28.2368 20.3516 29.5374 18.7926C29.9511 18.2944 29.2396 17.5895 28.8226 18.0877Z" fill="#46A358"/>
<path d="M38.6055 24.5678C38.5823 32.2069 37.5829 39.7748 35.6236 47.1461C35.4548 47.7799 36.4179 48.0273 36.5867 47.3969C38.5658 39.9408 39.5752 32.2746 39.5984 24.5474C39.5984 23.8933 38.6055 23.9137 38.6055 24.5678Z" fill="#46A358"/>
<path d="M36.7191 22.2937C34.1509 25.3405 32.89 29.0923 31.9832 32.9525C31.8342 33.5897 32.7973 33.8405 32.9462 33.2033C33.8133 29.5261 34.9849 25.9099 37.4372 22.9987C37.8509 22.5038 37.1361 21.7955 36.7191 22.2937Z" fill="#46A358"/>
<path d="M12.7549 10.791C14.5222 15.0545 15.8062 19.474 16.6005 24.0323C16.7131 24.6763 17.6629 24.3814 17.5537 23.7409C16.7594 19.1825 15.472 14.7631 13.708 10.4995C13.4598 9.90645 12.5067 10.1877 12.7549 10.791Z" fill="#46A358"/>
<path d="M10.9148 11.1604C10.3952 17.6302 9.88552 24.1814 10.9379 30.6275C12.04 37.3516 14.7472 43.9129 16.8289 50.3692C17.0275 50.9894 17.9806 50.7013 17.782 50.0777C15.7665 43.818 13.1619 37.4532 11.997 30.9597C10.8254 24.422 11.3781 17.7149 11.9076 11.14C11.9606 10.4893 10.9677 10.513 10.9148 11.1604Z" fill="#46A358"/>
<path d="M4.59692 26.791C7.90974 29.9497 10.5938 33.6438 12.6059 37.7955C12.8906 38.3818 13.7345 37.8464 13.4532 37.2634C11.4046 33.0372 8.65769 29.2719 5.2853 26.0556C4.81866 25.6116 4.13028 26.3437 4.59692 26.791Z" fill="#46A358"/>
<path d="M2.32328 28.0959C4.88815 35.9451 8.33998 43.4419 12.6258 50.4573C12.9634 51.0132 13.8139 50.4845 13.473 49.9253C9.23024 42.9809 5.81482 35.5723 3.27642 27.8044C3.07454 27.1876 2.1214 27.4723 2.32328 28.0959Z" fill="#46A358"/>
<path d="M8.0686 48.4407C6.60579 45.7633 4.46123 43.5367 1.79376 42.12C1.251 41.8319 0.731403 41.9065 1.78383 41.798C2.16773 41.7574 2.56487 41.7404 2.94878 41.7472C4.19977 41.7608 5.33163 41.9912 6.40722 42.686C7.65822 43.4926 8.75036 44.6517 9.86897 45.6379C10.3522 46.065 11.0405 45.3329 10.5574 44.9059C9.14088 43.6519 7.73765 42.0861 6.00015 41.3066C5.03046 40.8694 3.98135 40.7406 2.92892 40.7372C2.2604 40.7338 0.870403 40.6051 0.311095 41.188C-0.781045 42.32 1.31057 42.9876 1.96254 43.3841C4.19977 44.733 5.96044 46.6716 7.22136 48.983C7.53246 49.5456 8.37969 49.0135 8.0686 48.4407Z" fill="#46A358"/>
<path d="M38.2812 40.1849C39.2509 37.9718 41.5046 37.277 43.6492 36.8161C43.9636 36.7483 44.0894 36.3212 43.9305 36.0637C42.7656 34.1793 40.6442 33.9861 38.6551 34.1725C38.023 34.2302 38.0363 35.2469 38.675 35.1893C40.2801 35.0402 42.1169 35.03 43.0833 36.5958C43.1759 36.345 43.2719 36.0942 43.3646 35.8434C40.9751 36.3551 38.483 37.2397 37.4141 39.69C37.1526 40.2831 38.0197 40.7813 38.2812 40.1849Z" fill="#46A358"/>
<path d="M4.43144 25.8082C3.99459 26.3979 3.50478 27.1333 2.77999 27.3706C2.06514 27.6044 1.30064 27.2689 1.3569 26.3843C1.39993 25.6929 1.97909 25.188 2.54171 24.8999C3.19699 24.5644 4.99406 24.4051 4.51749 25.6929C4.29244 26.3064 5.25551 26.547 5.48056 25.9437C5.94058 24.6999 4.8352 23.612 3.66364 23.5883C2.4325 23.5646 0.999475 24.4017 0.536143 25.598C0.102596 26.7063 0.556 28.0924 1.76066 28.4076C3.2334 28.7906 4.34871 27.5942 5.14961 26.5165C5.5302 25.9946 4.81866 25.2862 4.43144 25.8082Z" fill="#46A358"/>
<path d="M12.9965 10.0284C12.3776 10.147 11.4807 10.5605 10.8618 10.2216C10.243 9.87927 10.3555 9.0286 10.7129 8.53717C11.0869 8.02541 11.676 7.83901 12.2717 8.00847C12.7549 8.14742 14.2607 9.44207 13.2116 9.88944C12.6291 10.1368 12.9038 11.1163 13.4962 10.8655C14.7373 10.3368 14.6943 8.86592 13.8967 7.92035C13.0924 6.96462 11.6528 6.60198 10.5772 7.29675C9.63731 7.90679 9.11441 9.23533 9.62407 10.2995C10.3455 11.8111 12.0334 11.2417 13.2811 11.0045C13.9066 10.8825 13.6187 9.90638 12.9965 10.0284Z" fill="#46A358"/>
<path d="M24.7916 3.82639C23.9311 4.05346 22.9283 4.3212 22.0414 4.10091C20.7937 3.79589 20.7473 2.33178 21.6244 1.57262C22.326 0.965964 23.4016 0.898181 24.2521 1.16253C24.7883 1.3286 25.4171 1.68785 25.5627 2.29111C25.7017 2.8571 25.4336 3.4163 24.8776 3.55526C24.2587 3.71116 24.54 4.68723 25.1622 4.53133C26.6416 4.15852 26.9659 2.27078 26.0558 1.15914C25.0299 -0.0914443 22.9713 -0.304959 21.5913 0.386423C20.2939 1.03714 19.503 2.78593 20.3668 4.12124C21.3662 5.67007 23.62 5.18204 25.0729 4.79568C25.6918 4.63639 25.4105 3.66032 24.7916 3.82639Z" fill="#46A358"/>
<path d="M31.8706 13.8208C30.4442 13.5599 28.8821 13.9835 28.2302 15.4307C27.7006 16.6033 28.2004 18.125 29.4315 18.5656C30.6726 19.0096 32.5557 18.4605 33.2441 17.2811C33.9027 16.1458 33.4261 14.7054 32.3869 14.0276C31.8475 13.6751 31.3676 14.5664 31.9037 14.9155C32.5722 15.3493 32.7907 16.3356 32.2446 16.9693C31.7581 17.5353 30.7189 17.7759 30.014 17.6472C29.1072 17.4811 28.7564 16.5084 29.2098 15.7052C29.7062 14.8274 30.7288 14.6444 31.629 14.8071C32.2545 14.9223 32.4994 13.9361 31.8706 13.8208Z" fill="#46A358"/>
<path d="M39.5653 19.44C38.3109 19.3553 36.5735 19.5383 36.2955 21.1108C36.0671 22.3987 37.4968 24.1001 38.5923 24.5576C41.7197 25.8624 42.3883 19.3553 39.691 19.5281C39.0556 19.5688 39.0721 20.5855 39.7109 20.5449C40.5879 20.4872 40.3728 22.6122 40.1742 23.0325C39.7076 24.0323 38.814 23.6662 38.2249 23.0291C37.7715 22.5377 36.9574 21.6667 37.4273 20.9617C37.8807 20.2839 38.8934 20.4127 39.5851 20.4567C40.2238 20.5008 40.1974 19.4841 39.5653 19.44Z" fill="#46A358"/>
<path d="M21.6376 6.39855C21.5383 6.74085 21.4357 7.08316 21.3364 7.42546C21.214 7.84571 21.856 8.00839 21.9785 7.59153C22.0778 7.24922 22.1804 6.90692 22.2797 6.56462C22.4021 6.14437 21.7601 5.98169 21.6376 6.39855Z" fill="#46A358"/>
<path d="M23.0508 6.45631C23.0541 6.68338 23.0607 6.90706 23.064 7.13413C23.0739 7.57133 23.7358 7.55777 23.7259 7.12058C23.7226 6.8935 23.716 6.66982 23.7127 6.44275C23.7061 6.00555 23.0442 6.01911 23.0508 6.45631Z" fill="#46A358"/>
<path d="M22.5808 10.5333C23.0078 10.5231 22.9945 9.84529 22.5676 9.85546C22.144 9.86224 22.1572 10.5401 22.5808 10.5333Z" fill="#46A358"/>
<path d="M20.605 10.9129C20.5752 11.2891 20.5455 11.6687 20.519 12.0449C20.5058 12.2279 20.6911 12.3804 20.8566 12.377C21.0518 12.3737 21.1677 12.2144 21.1809 12.0314C21.2107 11.6552 21.2405 11.2756 21.2669 10.8994C21.2802 10.7164 21.0948 10.5639 20.9294 10.5673C20.7341 10.5706 20.6183 10.7299 20.605 10.9129Z" fill="#46A358"/>
<path d="M22.1704 12.011C22.1804 12.4245 22.187 12.8379 22.1969 13.2548C22.2068 13.692 22.8688 13.6784 22.8588 13.2412C22.8489 12.8278 22.8423 12.4143 22.8323 11.9974C22.8224 11.5602 22.1605 11.5738 22.1704 12.011Z" fill="#46A358"/>
<path d="M23.342 9.61159C23.385 9.9505 23.4281 10.2894 23.4711 10.6249C23.4942 10.8079 23.6167 10.9605 23.8087 10.9571C23.9708 10.9537 24.1562 10.7944 24.133 10.6114C24.09 10.2725 24.0469 9.93355 24.0039 9.59803C23.9807 9.41502 23.8583 9.2625 23.6663 9.26589C23.5009 9.26928 23.3155 9.42857 23.342 9.61159Z" fill="#46A358"/>
<path d="M23.438 14.6952C23.4413 14.885 23.4446 15.0714 23.4479 15.2612C23.4578 15.6984 24.1197 15.6849 24.1098 15.2477C24.1065 15.0579 24.1032 14.8715 24.0999 14.6817C24.09 14.2445 23.4281 14.258 23.438 14.6952Z" fill="#46A358"/>
<path d="M22.005 9.18794C21.9719 9.52347 22.0447 9.83866 22.1804 10.1437C22.2532 10.3097 22.4981 10.3436 22.6371 10.2555C22.8059 10.1505 22.8191 9.95727 22.7463 9.78782C22.6603 9.59464 22.647 9.38112 22.6669 9.171C22.6834 8.98798 22.4915 8.83547 22.3293 8.83886C22.134 8.84564 22.0215 9.00493 22.005 9.18794Z" fill="#46A358"/>
<path d="M19.6949 14.5698C19.6287 14.9493 19.5625 15.3255 19.4964 15.7051C19.4202 16.1321 20.0623 16.3016 20.1384 15.8712C20.2046 15.4916 20.2708 15.1154 20.337 14.7358C20.4098 14.3088 19.771 14.1393 19.6949 14.5698Z" fill="#46A358"/>
<path d="M21.5185 16.9083C21.4887 17.1726 21.4556 17.437 21.4258 17.7013C21.4059 17.8843 21.4754 18.0639 21.6641 18.1148C21.8196 18.1555 22.0447 18.0538 22.0678 17.8708C22.0976 17.6064 22.1307 17.3421 22.1605 17.0777C22.1804 16.8947 22.1109 16.7151 21.9222 16.6642C21.7667 16.6202 21.5416 16.7252 21.5185 16.9083Z" fill="#46A358"/>
<path d="M20.936 21.7311C20.9889 22.0192 20.9559 22.3005 20.8665 22.575C20.7308 22.9885 21.3728 23.1546 21.5085 22.7411C21.6376 22.3479 21.6475 21.9446 21.5714 21.5379C21.5383 21.3583 21.3199 21.26 21.161 21.3109C20.9724 21.3685 20.8996 21.5515 20.936 21.7311Z" fill="#46A358"/>
<path d="M18.9139 18.9961C18.8841 19.2604 18.851 19.5248 18.8212 19.7891C18.8014 19.9722 18.8709 20.1518 19.0595 20.2026C19.215 20.2433 19.4401 20.1416 19.4633 19.9586C19.493 19.6942 19.5261 19.4299 19.5559 19.1655C19.5758 18.9825 19.5063 18.8029 19.3176 18.7521C19.1588 18.7114 18.9337 18.8131 18.9139 18.9961Z" fill="#46A358"/>
<path d="M23.4214 19.5349C23.5009 19.9111 23.577 20.2873 23.6564 20.6601C23.7458 21.0871 24.3812 20.8905 24.2918 20.4669C24.2124 20.0907 24.1363 19.7145 24.0569 19.3417C23.9675 18.9147 23.3354 19.1078 23.4214 19.5349Z" fill="#46A358"/>
<path d="M23.855 24.5169C23.8616 24.8931 23.8715 25.2693 23.8782 25.6455C23.8881 26.0827 24.55 26.0692 24.5401 25.632C24.5334 25.2558 24.5235 24.8796 24.5169 24.5034C24.5103 24.0662 23.8484 24.0797 23.855 24.5169Z" fill="#46A358"/>
<path d="M23.0739 29.4855C23.117 29.7498 23.1567 30.0108 23.1997 30.2751C23.2295 30.4548 23.4545 30.5496 23.6101 30.5022C23.7987 30.4446 23.8616 30.2616 23.8318 30.0819C23.7888 29.8176 23.7491 29.5566 23.7061 29.2923C23.6763 29.1127 23.4512 29.0178 23.2957 29.0652C23.107 29.1194 23.0441 29.3025 23.0739 29.4855Z" fill="#46A358"/>
<path d="M20.3734 26.9639C20.3767 27.191 20.3833 27.4147 20.3866 27.6417C20.3965 28.0789 21.0584 28.0654 21.0485 27.6282C21.0452 27.4011 21.0386 27.1774 21.0353 26.9503C21.0287 26.5132 20.3668 26.5267 20.3734 26.9639Z" fill="#46A358"/>
<path d="M18.5498 24.0627C18.573 24.344 18.5465 24.6084 18.4671 24.8795C18.3446 25.2998 18.9867 25.4624 19.1091 25.0456C19.2051 24.7236 19.2382 24.3847 19.2117 24.0492C19.1753 23.6188 18.5134 23.6289 18.5498 24.0627Z" fill="#46A358"/>
<path d="M19.3805 31.8646C19.3474 32.129 19.3176 32.3933 19.2845 32.6577C19.2614 32.8407 19.3342 33.0203 19.5228 33.0712C19.6784 33.1118 19.9034 33.0102 19.9266 32.8271C19.9597 32.5628 19.9895 32.2984 20.0226 32.0341C20.0457 31.8511 19.9729 31.6715 19.7843 31.6206C19.6254 31.58 19.4037 31.6816 19.3805 31.8646Z" fill="#46A358"/>
<path d="M22.7562 35.7045C22.7992 35.9282 22.839 36.1553 22.882 36.3789C22.9151 36.5586 23.1335 36.6569 23.2924 36.606C23.4777 36.5484 23.5472 36.3654 23.5141 36.1858C23.4711 35.9621 23.4314 35.735 23.3883 35.5113C23.3552 35.3317 23.1368 35.2334 22.978 35.2843C22.7926 35.3419 22.7231 35.5249 22.7562 35.7045Z" fill="#46A358"/>
<path d="M20.9658 39.585C21.0452 39.9612 21.1279 40.334 21.2074 40.7102C21.3 41.1372 21.9322 40.9407 21.8428 40.517C21.7634 40.1408 21.6806 39.768 21.6012 39.3918C21.5085 38.9648 20.8731 39.158 20.9658 39.585Z" fill="#46A358"/>
<path d="M24.6592 42.0387C24.5897 42.303 24.5235 42.5674 24.454 42.8351C24.3448 43.2587 24.9868 43.4248 25.0961 43.0012C25.1656 42.7368 25.2318 42.4725 25.3013 42.2047C25.4105 41.7811 24.7684 41.615 24.6592 42.0387Z" fill="#46A358"/>
<path d="M24.1661 12.6245C24.2091 12.8889 24.2521 13.1498 24.2952 13.4142C24.3249 13.5938 24.55 13.6887 24.7055 13.6413C24.8942 13.5837 24.9571 13.4006 24.9273 13.221C24.8842 12.9567 24.8412 12.6957 24.7982 12.4314C24.7684 12.2517 24.5434 12.1568 24.3878 12.2043C24.2025 12.2619 24.1363 12.4449 24.1661 12.6245Z" fill="#46A358"/>
<path d="M24.2455 17.2777C24.2918 17.6166 24.3382 17.9521 24.3845 18.291C24.411 18.4707 24.5268 18.6266 24.7221 18.6232C24.8842 18.6198 25.0696 18.4605 25.0464 18.2775C25.0001 17.9386 24.9537 17.603 24.9074 17.2641C24.8809 17.0845 24.7651 16.9286 24.5698 16.932C24.4077 16.9354 24.219 17.0981 24.2455 17.2777Z" fill="#46A358"/>
<path d="M29.2098 21.0397C29.1204 21.5718 29.0278 22.1005 28.9384 22.6326C28.8656 23.0597 29.5076 23.2291 29.5804 22.7987C29.6698 22.2666 29.7625 21.7379 29.8518 21.2058C29.9246 20.7788 29.2826 20.6093 29.2098 21.0397Z" fill="#46A358"/>
<path d="M30.4972 20.084C30.5038 20.3484 30.5071 20.6127 30.5137 20.8737C30.5237 21.3109 31.1856 21.2973 31.1756 20.8601C31.169 20.5958 31.1657 20.3314 31.1591 20.0705C31.1492 19.6333 30.4906 19.6468 30.4972 20.084Z" fill="#46A358"/>
<path d="M30.1364 23.707C30.0736 24.2729 30.014 24.8389 29.9511 25.4049C29.9048 25.8387 30.5667 25.8184 30.613 25.3914C30.6759 24.8254 30.7355 24.2594 30.7984 23.6934C30.8447 23.263 30.1828 23.2799 30.1364 23.707Z" fill="#46A358"/>
<path d="M28.4221 24.6999C28.2798 25.0049 28.1408 25.31 27.9985 25.6116C27.8165 26.0047 28.3956 26.3369 28.5777 25.9403C28.72 25.6353 28.859 25.3303 29.0013 25.0287C29.1833 24.6355 28.6041 24.3034 28.4221 24.6999Z" fill="#46A358"/>
<path d="M27.4259 22.8868C27.3399 23.1173 27.2572 23.3444 27.1711 23.5748C27.1082 23.7477 27.2505 23.9442 27.4094 23.9883C27.598 24.0391 27.747 23.9137 27.8132 23.7443C27.8992 23.5138 27.9819 23.2867 28.068 23.0563C28.1309 22.8834 27.9886 22.6869 27.8297 22.6428C27.6411 22.592 27.4921 22.714 27.4259 22.8868Z" fill="#46A358"/>
<path d="M29.3157 27.34C29.3024 27.6417 29.2925 27.9433 29.2793 28.2449C29.2627 28.6821 29.9246 28.6652 29.9412 28.2314C29.9544 27.9297 29.9643 27.6281 29.9776 27.3265C29.9941 26.8893 29.3322 26.9062 29.3157 27.34Z" fill="#46A358"/>
<path d="M30.6726 29.1194C30.6593 29.4007 30.6461 29.6854 30.6329 29.9666C30.6229 30.1497 30.8017 30.3022 30.9704 30.2988C31.1591 30.2954 31.2849 30.1361 31.2948 29.9531C31.308 29.6718 31.3213 29.3871 31.3345 29.1058C31.3444 28.9228 31.1657 28.7703 30.9969 28.7737C30.8083 28.7771 30.6825 28.9364 30.6726 29.1194Z" fill="#46A358"/>
<path d="M30.1497 32.1492C30.1199 32.3932 30.0868 32.6406 30.057 32.8846C30.0339 33.0643 30.11 33.2473 30.2953 33.2981C30.4542 33.3388 30.6759 33.2371 30.6991 33.0541C30.7288 32.8101 30.7619 32.5627 30.7917 32.3186C30.8149 32.139 30.7388 31.956 30.5534 31.9052C30.3946 31.8611 30.1728 31.9662 30.1497 32.1492Z" fill="#46A358"/>
<path d="M27.6808 30.0548C27.6477 30.2616 27.6146 30.4717 27.5815 30.6784C27.5517 30.8581 27.6378 31.0411 27.8198 31.0919C27.982 31.1326 28.1938 31.0275 28.2235 30.8479C28.2566 30.6412 28.2897 30.431 28.3228 30.2243C28.3526 30.0447 28.2666 29.8617 28.0845 29.8108C27.9224 29.7668 27.7106 29.8718 27.6808 30.0548Z" fill="#46A358"/>
<path d="M28.1574 35.4435C28.1607 35.5926 28.164 35.7451 28.1673 35.8943C28.1772 36.3315 28.8391 36.3179 28.8292 35.8807C28.8259 35.7316 28.8226 35.5791 28.8193 35.43C28.8093 34.9928 28.1474 35.0063 28.1574 35.4435Z" fill="#46A358"/>
<path d="M30.2953 37.4328C30.2986 37.582 30.3019 37.7345 30.3052 37.8836C30.3152 38.3208 30.9771 38.3072 30.9671 37.87C30.9638 37.7209 30.9605 37.5684 30.9572 37.4193C30.9473 36.9821 30.2854 36.9956 30.2953 37.4328Z" fill="#46A358"/>
<path d="M28.389 41.5406C28.4155 41.8049 28.389 42.0489 28.3063 42.2997C28.25 42.4726 28.3824 42.6691 28.5446 42.7132C28.7299 42.7606 28.8888 42.642 28.9483 42.4692C29.0476 42.1676 29.084 41.8456 29.0509 41.5304C29.0311 41.3474 28.902 41.1949 28.7134 41.1983C28.5446 41.1983 28.3692 41.3576 28.389 41.5406Z" fill="#46A358"/>
<path d="M29.2065 19.3213C29.1204 19.4942 29.0311 19.667 28.945 19.8365C28.7498 20.2228 29.3256 20.555 29.5242 20.1652C29.6102 19.9924 29.6996 19.8195 29.7856 19.6501C29.9809 19.2637 29.405 18.9316 29.2065 19.3213Z" fill="#46A358"/>
<path d="M12.04 12.8787C12.0996 13.2346 12.1625 13.5938 12.222 13.9497C12.2518 14.1293 12.4769 14.2242 12.6324 14.1767C12.8211 14.1191 12.8872 13.9361 12.8542 13.7565C12.7946 13.4006 12.7317 13.0414 12.6721 12.6855C12.6423 12.5059 12.4173 12.411 12.2618 12.4585C12.0731 12.5161 12.0069 12.6991 12.04 12.8787Z" fill="#46A358"/>
<path d="M13.0262 15.1189C13.1785 15.4917 13.334 15.8679 13.4863 16.2407C13.5558 16.4102 13.7146 16.5254 13.8966 16.4678C14.0522 16.4204 14.1879 16.217 14.1184 16.0476C13.9661 15.6748 13.8106 15.2986 13.6584 14.9258C13.5889 14.7563 13.43 14.6411 13.248 14.6987C13.0924 14.7461 12.9567 14.9495 13.0262 15.1189Z" fill="#46A358"/>
<path d="M12.1228 16.3695C12.0466 16.8915 12.0533 17.3897 12.1426 17.9048C12.2154 18.3318 12.8475 18.1387 12.778 17.7116C12.7118 17.3253 12.7118 16.9254 12.7681 16.5356C12.8244 16.1086 12.1823 15.9391 12.1228 16.3695Z" fill="#46A358"/>
<path d="M13.3804 18.3284C13.4929 18.647 13.6021 18.9689 13.7146 19.2875C13.8569 19.6976 14.4924 19.5078 14.3501 19.0943C14.2375 18.7757 14.1283 18.4538 14.0158 18.1352C13.8735 17.7251 13.2381 17.9149 13.3804 18.3284Z" fill="#46A358"/>
<path d="M11.8414 19.6841C11.8481 20.0603 11.858 20.4364 11.8646 20.8126C11.8745 21.2498 12.5364 21.2363 12.5265 20.7991C12.5199 20.4229 12.51 20.0467 12.5033 19.6705C12.4967 19.2333 11.8348 19.2469 11.8414 19.6841Z" fill="#46A358"/>
<path d="M13.0825 20.9584C13.0891 21.2973 13.0958 21.6362 13.1024 21.9751C13.1123 22.4123 13.7742 22.3987 13.7643 21.9615C13.7577 21.6226 13.751 21.2837 13.7444 20.9448C13.7345 20.5076 13.0726 20.5212 13.0825 20.9584Z" fill="#46A358"/>
<path d="M14.9325 21.6294C15.0649 22.0225 15.2006 22.4156 15.333 22.8088C15.472 23.2189 16.1074 23.0291 15.9684 22.6156C15.836 22.2225 15.7003 21.8293 15.568 21.4362C15.429 21.0261 14.7935 21.2159 14.9325 21.6294Z" fill="#46A358"/>
<path d="M15.6573 25.0049C15.697 25.2116 15.7401 25.4184 15.7798 25.6251C15.8162 25.8047 16.0313 25.903 16.1901 25.8522C16.3755 25.7946 16.4483 25.6116 16.4119 25.4319C16.3722 25.2252 16.3291 25.0185 16.2894 24.8117C16.253 24.6321 16.0379 24.5338 15.8791 24.5846C15.697 24.6389 15.6209 24.8253 15.6573 25.0049Z" fill="#46A358"/>
<path d="M13.8404 25.0422C13.9496 25.3608 14.029 25.6861 14.0654 26.0216C14.0853 26.2046 14.2144 26.3572 14.403 26.3538C14.5685 26.3504 14.7472 26.1911 14.7273 26.0081C14.6843 25.6115 14.6049 25.2252 14.4758 24.849C14.3335 24.4389 13.6981 24.6287 13.8404 25.0422Z" fill="#46A358"/>
<path d="M12.1426 23.6899C12.1492 23.9543 12.1525 24.2187 12.1592 24.4796C12.1691 24.9168 12.831 24.9033 12.8211 24.4661C12.8144 24.2017 12.8111 23.9374 12.8045 23.6764C12.7946 23.2392 12.136 23.2528 12.1426 23.6899Z" fill="#46A358"/>
<path d="M12.9402 27.74C12.9667 28.0789 13.0296 28.411 13.1388 28.7296C13.2811 29.1397 13.9165 28.9499 13.7742 28.5364C13.6815 28.272 13.622 28.0043 13.6021 27.7264C13.5723 27.2926 12.9104 27.3062 12.9402 27.74Z" fill="#46A358"/>
<path d="M14.3898 30.6242C14.4493 30.8309 14.5089 31.0377 14.5685 31.241C14.6876 31.6579 15.3231 31.4681 15.2039 31.0478C15.1443 30.8411 15.0848 30.6378 15.0252 30.431C14.9061 30.0142 14.2706 30.2039 14.3898 30.6242Z" fill="#46A358"/>
<path d="M15.1675 28.0078C15.2072 28.1569 15.2469 28.306 15.2867 28.4585C15.3992 28.8788 16.0346 28.6856 15.9221 28.2654C15.8824 28.1162 15.8426 27.9671 15.8029 27.8146C15.6904 27.3943 15.055 27.5875 15.1675 28.0078Z" fill="#46A358"/>
<path d="M13.291 33.6438C13.3738 33.9793 13.4532 34.3182 13.5359 34.6537C13.6385 35.0774 14.2739 34.8842 14.1713 34.4606C14.0886 34.125 14.0092 33.7861 13.9264 33.4506C13.8238 33.027 13.1884 33.2201 13.291 33.6438Z" fill="#46A358"/>
<path d="M14.9358 38.5785C14.9954 38.7276 15.0517 38.8768 15.1112 39.0259C15.1774 39.1953 15.3396 39.3106 15.5216 39.2529C15.6805 39.2055 15.8096 39.0022 15.7434 38.8327C15.6838 38.6836 15.6275 38.5345 15.568 38.3853C15.5018 38.2159 15.3396 38.1006 15.1576 38.1583C14.9987 38.2057 14.8697 38.4091 14.9358 38.5785Z" fill="#46A358"/>
<path d="M36.4808 24.5338C36.3054 24.8965 36.1267 25.2557 35.9513 25.6183C35.7593 26.0081 36.3385 26.3402 36.5304 25.9471C36.7058 25.5845 36.8845 25.2252 37.0599 24.8626C37.2519 24.4728 36.6727 24.1441 36.4808 24.5338Z" fill="#46A358"/>
<path d="M37.4075 25.3845C37.3247 25.7268 37.2387 26.0657 37.1559 26.408C37.05 26.8317 37.6921 26.9977 37.798 26.5741C37.8807 26.2318 37.9668 25.8929 38.0495 25.5506C38.1521 25.1303 37.51 24.9643 37.4075 25.3845Z" fill="#46A358"/>
<path d="M36.5933 28.6246C36.5106 28.9093 36.4278 29.194 36.3418 29.4786C36.2193 29.8989 36.8614 30.0616 36.9838 29.6447C37.0666 29.36 37.1493 29.0753 37.2354 28.7906C37.3545 28.3738 36.7125 28.2077 36.5933 28.6246Z" fill="#46A358"/>
<path d="M36.0373 27.252C35.9678 27.3841 35.895 27.5197 35.8255 27.6519C35.6203 28.0349 36.1995 28.367 36.4047 27.9806C36.4742 27.8485 36.547 27.7129 36.6165 27.5807C36.8217 27.2011 36.2425 26.869 36.0373 27.252Z" fill="#46A358"/>
<path d="M37.6722 27.4146C37.6424 27.679 37.6126 27.9433 37.5829 28.2077C37.563 28.3907 37.6325 28.5703 37.8211 28.6212C37.9767 28.6618 38.2017 28.5602 38.2249 28.3771C38.2547 28.1128 38.2845 27.8484 38.3143 27.5841C38.3341 27.4011 38.2646 27.2215 38.076 27.1706C37.9171 27.1299 37.6921 27.2316 37.6722 27.4146Z" fill="#46A358"/>
<path d="M34.5546 29.1736C34.4885 29.3905 34.3892 29.5871 34.27 29.7769C34.0384 30.1429 34.6175 30.4716 34.8492 30.1056C35.0014 29.8684 35.114 29.6108 35.1967 29.3397C35.2496 29.1668 35.1239 28.9703 34.9584 28.9262C34.7731 28.8821 34.6076 28.9974 34.5546 29.1736Z" fill="#46A358"/>
<path d="M34.5348 32.0883C34.3925 32.3289 34.323 32.6034 34.3362 32.8847C34.3561 33.3185 35.018 33.3083 34.9981 32.8711C34.9915 32.7017 35.0246 32.5627 35.114 32.4204C35.3357 32.0442 34.7565 31.7154 34.5348 32.0883Z" fill="#46A358"/>
<path d="M36.259 31.3426C36.1929 31.5697 36.1267 31.8002 36.0638 32.0272C35.9446 32.4475 36.5867 32.6102 36.7058 32.1933C36.772 31.9662 36.8382 31.7358 36.9011 31.5087C37.0202 31.0885 36.3782 30.9258 36.259 31.3426Z" fill="#46A358"/>
<path d="M35.713 34.6842C35.6435 34.9317 35.5773 35.1757 35.5078 35.4231C35.392 35.8433 36.034 36.0094 36.1498 35.5892C36.2193 35.3417 36.2855 35.0977 36.355 34.8503C36.4709 34.4334 35.8288 34.2674 35.713 34.6842Z" fill="#46A358"/>
<path d="M37.8112 29.8718C37.7947 30.0243 37.7814 30.1734 37.7649 30.3259C37.745 30.5089 37.9403 30.6614 38.1024 30.658C38.301 30.6547 38.4069 30.4954 38.4268 30.3124C38.4433 30.1599 38.4566 30.0107 38.4731 29.8582C38.493 29.6752 38.2977 29.5227 38.1355 29.5261C37.937 29.5329 37.8311 29.6888 37.8112 29.8718Z" fill="#46A358"/>
<path d="M33.6545 36.65C33.6214 36.7652 33.585 36.8771 33.5519 36.9923C33.4261 37.4092 34.0682 37.5753 34.1939 37.1584C34.227 37.0432 34.2634 36.9313 34.2965 36.8161C34.4223 36.3992 33.7802 36.2365 33.6545 36.65Z" fill="#46A358"/>
<path d="M33.1216 40.1103C33.0521 40.3001 32.9793 40.4899 32.9098 40.6797C32.8469 40.8492 32.9893 41.0491 33.1481 41.0932C33.3401 41.144 33.4857 41.0186 33.5519 40.8492C33.6214 40.6594 33.6942 40.4696 33.7637 40.2798C33.8265 40.1103 33.6842 39.9104 33.5254 39.8663C33.3334 39.8155 33.1878 39.9375 33.1216 40.1103Z" fill="#46A358"/>
<path d="M35.7262 38.731C35.7295 38.8428 35.7295 38.9581 35.7328 39.0699C35.7428 39.5071 36.4047 39.4935 36.3947 39.0563C36.3914 38.9445 36.3914 38.8293 36.3881 38.7174C36.3782 38.2802 35.7163 38.2938 35.7262 38.731Z" fill="#46A358"/>
<path d="M34.4918 43.2214C34.4752 43.374 34.462 43.5231 34.4454 43.6756C34.4256 43.8586 34.6208 44.0111 34.783 44.0077C34.9816 44.0043 35.0875 43.8451 35.1073 43.662C35.1239 43.5095 35.1371 43.3604 35.1537 43.2079C35.1735 43.0249 34.9783 42.8724 34.8161 42.8758C34.6208 42.8791 34.5116 43.0384 34.4918 43.2214Z" fill="#46A358"/>
<path d="M4.25934 29.0888C4.31561 29.2752 4.37518 29.465 4.43144 29.6514C4.5572 30.0683 5.19263 29.8751 5.06686 29.4582C5.0106 29.2718 4.95103 29.082 4.89477 28.8956C4.7657 28.4788 4.13027 28.672 4.25934 29.0888Z" fill="#46A358"/>
<path d="M4.94111 28.3195C5.16284 28.6008 5.38789 28.8821 5.60963 29.16C5.72215 29.3024 5.96375 29.2719 6.07627 29.1499C6.21196 29.0041 6.17886 28.8144 6.06634 28.672C5.8446 28.3907 5.61956 28.1094 5.39782 27.8315C5.28529 27.6892 5.0437 27.7197 4.93118 27.8417C4.79549 27.984 4.82858 28.1772 4.94111 28.3195Z" fill="#46A358"/>
<path d="M6.21196 30.7055C6.40391 30.9835 6.59586 31.2614 6.78451 31.5359C7.02941 31.8917 7.59534 31.5393 7.35043 31.1834C7.15848 30.9055 6.96653 30.6276 6.77789 30.3531C6.52967 29.9972 5.96375 30.3463 6.21196 30.7055Z" fill="#46A358"/>
<path d="M5.39782 31.5155C5.55006 31.7764 5.7023 32.0374 5.85454 32.2984C6.07297 32.6712 6.63889 32.3187 6.42046 31.9459C6.26823 31.6849 6.11599 31.424 5.96375 31.163C5.74201 30.7868 5.1794 31.1393 5.39782 31.5155Z" fill="#46A358"/>
<path d="M6.88048 34.3115C7.07243 34.664 7.2677 35.0165 7.45965 35.3689C7.66815 35.7485 8.23407 35.3961 8.02557 35.0165C7.83362 34.664 7.63836 34.3115 7.44641 33.9591C7.2346 33.5795 6.67198 33.932 6.88048 34.3115Z" fill="#46A358"/>
<path d="M7.46627 33.2846C7.59865 33.4879 7.73103 33.6946 7.86341 33.898C8.09838 34.2606 8.66431 33.9082 8.42933 33.5455C8.29695 33.3422 8.16457 33.1354 8.03219 32.9321C7.79391 32.5694 7.22798 32.9185 7.46627 33.2846Z" fill="#46A358"/>
<path d="M7.77405 31.8612C7.88327 32.1019 8.0686 32.2883 8.29034 32.4238C8.661 32.6441 8.98203 32.051 8.61136 31.8307C8.47898 31.7528 8.39955 31.6477 8.33667 31.5088C8.26055 31.3427 8.02227 31.3088 7.87996 31.3969C7.71779 31.502 7.69793 31.6952 7.77405 31.8612Z" fill="#46A358"/>
<path d="M5.29191 33.6404C5.33494 33.8268 5.37465 34.0132 5.41767 34.203C5.45739 34.3826 5.66589 34.4809 5.82805 34.4301C6.01008 34.3759 6.08951 34.1861 6.04979 34.0098C6.00677 33.8234 5.96705 33.637 5.92403 33.4472C5.88432 33.2676 5.67582 33.1693 5.51365 33.2202C5.33163 33.2744 5.2522 33.4642 5.29191 33.6404Z" fill="#46A358"/>
<path d="M7.38022 37.182C7.53246 37.5006 7.6847 37.8192 7.83363 38.1344C7.91306 38.3005 8.14803 38.3343 8.29034 38.2462C8.45582 38.1446 8.47898 37.9446 8.39955 37.7785C8.24732 37.46 8.09508 37.1414 7.94615 36.8262C7.86672 36.6601 7.63175 36.6262 7.48944 36.7143C7.32396 36.8194 7.3008 37.0194 7.38022 37.182Z" fill="#46A358"/>
<path d="M9.85243 36.223C9.96826 36.4467 10.0808 36.6704 10.1966 36.8941C10.3952 37.2804 10.9578 36.9246 10.7625 36.5416C10.6467 36.3179 10.5342 36.0943 10.4184 35.8706C10.2165 35.4842 9.65386 35.8367 9.85243 36.223Z" fill="#46A358"/>
<path d="M10.607 41.0695C10.703 41.2559 10.799 41.4423 10.8982 41.6253C11.1001 42.0117 11.6627 41.6558 11.4642 41.2728C11.3682 41.0864 11.2722 40.9 11.1729 40.717C10.971 40.3307 10.4051 40.6831 10.607 41.0695Z" fill="#46A358"/>
<path d="M11.7819 39.3512C11.8944 39.5376 12.0102 39.724 12.1228 39.9104C12.3478 40.2798 12.9137 39.9273 12.6887 39.5579C12.5762 39.3715 12.4603 39.1851 12.3478 38.9987C12.1194 38.6293 11.5535 38.9818 11.7819 39.3512Z" fill="#46A358"/>
<path d="M13.0991 44.5772C13.1917 44.7466 13.2877 44.9127 13.3804 45.0822C13.5922 45.4617 14.1548 45.1059 13.9463 44.7297C13.8536 44.5602 13.7577 44.3942 13.665 44.2247C13.4532 43.8451 12.8873 44.1976 13.0991 44.5772Z" fill="#46A358"/>
<path d="M2.42588 42.4828C2.64761 42.5912 2.87266 42.6963 3.0944 42.8047C3.4783 42.9911 3.80263 42.398 3.41542 42.2116C3.19368 42.1032 2.96864 41.9981 2.7469 41.8897C2.36631 41.7067 2.04197 42.2964 2.42588 42.4828Z" fill="#46A358"/>
<path d="M4.53404 43.4688C4.77894 43.6485 5.02385 43.8315 5.26544 44.0111C5.41106 44.1196 5.63611 44.028 5.71554 43.8789C5.81151 43.7027 5.73208 43.5265 5.58646 43.418C5.34156 43.2384 5.09666 43.0554 4.85506 42.8757C4.70944 42.7673 4.4844 42.8588 4.40497 43.0079C4.3123 43.1842 4.39173 43.3604 4.53404 43.4688Z" fill="#46A358"/>
<path d="M4.20971 42.4319C4.37849 42.4692 4.53404 42.5268 4.68628 42.6149C5.06025 42.825 5.38127 42.2319 5.0073 42.0218C4.80873 41.91 4.59361 41.8253 4.37187 41.7744C3.95818 41.6795 3.79271 42.337 4.20971 42.4319Z" fill="#46A358"/>
<path d="M6.14908 43.879C6.29801 43.9874 6.44694 44.0993 6.59586 44.2077C6.74148 44.3128 6.96653 44.2247 7.04596 44.0755C7.14194 43.8993 7.06251 43.7197 6.91689 43.6146C6.76796 43.5062 6.61903 43.3943 6.4701 43.2859C6.32448 43.1808 6.09944 43.2689 6.02001 43.418C5.92734 43.5943 6.00346 43.7705 6.14908 43.879Z" fill="#46A358"/>
<path d="M6.10274 44.8924C6.17886 45.0042 6.25498 45.1161 6.3311 45.2279C6.57269 45.5838 7.13862 45.2347 6.89703 44.8754C6.82091 44.7636 6.74479 44.6517 6.66867 44.5399C6.42708 44.1806 5.85784 44.5331 6.10274 44.8924Z" fill="#46A358"/>
<path d="M7.60196 45.438C7.75089 45.5668 7.89982 45.6955 8.05205 45.8243C8.18774 45.9429 8.38962 45.9531 8.5187 45.8142C8.63784 45.6888 8.64777 45.4515 8.50877 45.3363C8.35984 45.2075 8.21091 45.0787 8.05867 44.9499C7.92298 44.8313 7.7211 44.8211 7.59203 44.9601C7.47289 45.0821 7.46296 45.3193 7.60196 45.438Z" fill="#46A358"/>
<path d="M41.7628 35.4537C41.4087 35.3859 41.0578 35.3927 40.707 35.4842C40.2933 35.5926 40.482 36.2434 40.8957 36.1349C41.1273 36.0739 41.3623 36.0637 41.5973 36.1112C42.0176 36.1925 42.1798 35.535 41.7628 35.4537Z" fill="#46A358"/>
<path d="M39.4792 36.1552C39.3534 36.2535 39.2244 36.3484 39.0986 36.4466C38.9563 36.5551 38.8901 36.7449 38.9894 36.9143C39.0754 37.0601 39.3005 37.138 39.4461 37.0262C39.5719 36.9279 39.7009 36.833 39.8267 36.7347C39.969 36.6263 40.0352 36.4365 39.9359 36.267C39.8499 36.1213 39.6248 36.0467 39.4792 36.1552Z" fill="#46A358"/>
<path d="M39.5851 35.823C40.012 35.8129 39.9988 35.1351 39.5719 35.1452C39.1449 35.1554 39.1582 35.8332 39.5851 35.823Z" fill="#46A358"/>
</g>
<defs>
<clipPath id="clip0_4_3613">
<rect width="44" height="50.759" fill="white"/>
</clipPath>
</defs>
</svg>
